<?xml version="1.0" encoding="UTF-8"?>
<svg id="Laag_1" xmlns="http://www.w3.org/2000/svg" version="1.1" xmlns:xlink="http://www.w3.org/1999/xlink" viewBox="0 0 2551.18 1133.86">
  <!-- Generator: Adobe Illustrator 29.3.1, SVG Export Plug-In . SVG Version: 2.1.0 Build 151)  -->
  <defs>
    <style>
      .st0 {
        fill: #304256;
      }

      .st1 {
        fill: url(#Nieuwe_verloopstaal_14);
      }

      .st2 {
        fill: url(#Nieuwe_verloopstaal_17);
      }

      .st3 {
        fill: url(#Nieuwe_verloopstaal_16);
      }

      .st4 {
        fill: #d2c8c2;
      }

      .st5 {
        fill: url(#Nieuwe_verloopstaal_15);
      }

      .st6 {
        fill: url(#Nieuwe_verloopstaal_18);
      }

      .st7 {
        fill: #1e1e1c;
      }

      .st8 {
        fill: url(#Nieuwe_verloopstaal_1);
      }

      .st9 {
        fill: url(#Nieuwe_verloopstaal_11);
      }

      .st10 {
        fill: url(#Nieuwe_verloopstaal_13);
      }

      .st11 {
        fill: url(#Nieuwe_verloopstaal_12);
      }
    </style>
    <linearGradient id="Nieuwe_verloopstaal_1" data-name="Nieuwe verloopstaal 1" x1="110.8" y1="979.17" x2="1357.09" y2="979.17" gradientUnits="userSpaceOnUse">
      <stop offset="0" stop-color="#597e8d"/>
      <stop offset=".47" stop-color="#c6d9e5"/>
      <stop offset=".99" stop-color="#f3eeea"/>
    </linearGradient>
    <linearGradient id="Nieuwe_verloopstaal_11" data-name="Nieuwe verloopstaal 1" y1="976.39" y2="976.39" xlink:href="#Nieuwe_verloopstaal_1"/>
    <linearGradient id="Nieuwe_verloopstaal_12" data-name="Nieuwe verloopstaal 1" y1="969.39" y2="969.39" xlink:href="#Nieuwe_verloopstaal_1"/>
    <linearGradient id="Nieuwe_verloopstaal_13" data-name="Nieuwe verloopstaal 1" y1="1000.25" y2="1000.25" xlink:href="#Nieuwe_verloopstaal_1"/>
    <linearGradient id="Nieuwe_verloopstaal_14" data-name="Nieuwe verloopstaal 1" x1="110.8" y1="532.25" x2="1357.09" y2="532.25" xlink:href="#Nieuwe_verloopstaal_1"/>
    <linearGradient id="Nieuwe_verloopstaal_15" data-name="Nieuwe verloopstaal 1" y1="1009.99" y2="1009.99" xlink:href="#Nieuwe_verloopstaal_1"/>
    <linearGradient id="Nieuwe_verloopstaal_16" data-name="Nieuwe verloopstaal 1" y1="982.35" y2="982.35" xlink:href="#Nieuwe_verloopstaal_1"/>
    <linearGradient id="Nieuwe_verloopstaal_17" data-name="Nieuwe verloopstaal 1" x1="1269.31" y1="985.12" x2="1269.75" y2="985.12" xlink:href="#Nieuwe_verloopstaal_1"/>
    <linearGradient id="Nieuwe_verloopstaal_18" data-name="Nieuwe verloopstaal 1" x1="1044.53" y1="959.38" x2="1046.47" y2="959.38" xlink:href="#Nieuwe_verloopstaal_1"/>
  </defs>
  <g>
    <polygon class="st8" points="1266.3 978.8 1261.48 977.55 1271.64 980.78 1266.3 978.8"/>
    <path class="st9" d="M1261.31,977.55h.17l-16.38-4.49c5.52,2.17,10.69,4.3,14.78,6.64-3.03-1.97-4.27-3.41,1.43-2.16Z"/>
    <path class="st11" d="M1217.14,965.71c9.62,2.69,18.88,5.02,27.96,7.35-7.82-2.87-17.09-5.56-27.96-7.35Z"/>
    <path class="st10" d="M1328.25,1007.7c-9.43-5.21-19.04-10.23-28.83-14.89,4.8,2.68,9.25,5.73,13.69,9.15,6.06,3.77,9.81,4.3,15.14,5.74Z"/>
    <path class="st1" d="M1132.05,966.79l-.71-.54c-28.23-1.4-56.11-2.81-85.66-6.73,11,1.53,8.66,2.99-5.5,3.15l-11.41-3.22c26-1.44,52.17-2.68,76.58,2.87.11,0,11.22-.72,16.9-1.08,8,1.44,7.48,3.24,9.09,5.02l17.27,1.08c-11.76-4.49-50.04-10.57-50.04-10.41-73.88-2.51-143.5-1.26-211.34-2.51-5.17,1.08-8.9,2.35-15.85,1.62-5.34-1.07-10.69-1.78-16.02-2.32l-29.56-.9-10.43.34h-.07s-.26.02-.26.02c-5.59.56-3.98,1.63-.63,2.5,2.86.53,5.43,1.15,7.79,1.73,1.08.23,1.98.44,2.55.61-.82-.19-1.67-.4-2.55-.61-2.33-.5-5.47-1.11-7.79-1.73-4.63-.88-9.79-1.61-15.85-1.96-4.18,0-8.44,0-12.77-.06,3.08-.04,6.21-.13,9.36-.22,1.16.09,2.3.18,3.41.28l16.48-.55s.05,0,.08,0h.25s4.74-.54,4.74-.54l-67.66-2.68c-5.17,0-10.15,0-14.08.18-16.21-.18-32.58,0-42.37-3.94l-11.93-1.27,2.13.73c-1.79-.37-3.21-.73-4.28-.91-16.9-1.97-33.64-4.11-50.38-7.34-32.76-5.74-65.34-13.63-97.56-24.58-104.34-35.69-193.01-101.14-223.09-211.81-10.33-12.2-17.81-20.45-35.08-30.31-12.46-4.49-24.75-9.15-36.51-14.89-23.5-11.12-46.1-25.47-61.6-44.84-34-41.08-15.84-95.23,25.66-135.59,40.23-47,84.56-88.6,130.86-125.91,47.36-37.13,93.83-73.35,146.17-86.46,52.16-13.27,106.65-10.23,156.86,6.1,12.46,4.31,24.74,8.79,36.49,14.35l12.64,6.46c4.1,1.61-7.12-2.51,9.62,3.77l23.86,4.31c28.12,5,56.26,9.32,84.58,12.9,56.61,7.17,113.59,12.73,172.7,13.27,29.73.18,59.82-.71,91.34-5.92,30.81-6.28,66.94-11.3,99.34-47.35,25.12-27.8,29.92-83.58-3.56-121.42-32.04-34.45-70.33-44.13-104.69-52.38-69.78-13.98-135.85-11.83-181.07-10.39-120.35,17.4-54.83,40.17-49.67,40.53,36.68,8.43,68.55,9.51,109.31,11.48,33.82,2.93,79.35,2.82,129.01,22.09.67-.09,1.34-.18,2.01-.27.27-.01.53,0,.79,0-7.52-5.68,8.57-2.53,34.13,8.69,17.45,8.43,34.01,25.83,30.63,47.52-1.6,21.34-21.37,33-41.31,37.3-58.4,10.41-139.58,7.89-223.98,2.16-42.37-3.05-85.99-7.72-128.91-14.16-9.94-1.52-20.03-3.18-29.71-4.84l-8.92-4.49c-5.51-2.87-11.04-5.01-16.56-7.53-22.26-9.34-44.86-16.5-67.66-21.71-45.23-10.76-97.39-10.57-152.76,4.85-74.6,20.62-127.3,67.8-177.15,108.33-50.4,43.41-96.5,90.57-137.98,144.02-22.26,25.46-44.88,71.39-37.57,116.94,6.59,47.89,40.94,82.14,72.63,101.87,16.2,10.39,32.94,18.47,49.86,25.28,7.5,3.21,15.13,5.72,22.79,8.4-.03-.2.72.04,2.66.94-.89-.32-1.77-.63-2.66-.94.1.67,9.08,6.38,10.32,8.46,8.73,8.43,16.38,18.11,18.87,27.44,1.43,2.16,1.25,4.67,1.78,6.99l.53,3.42.18.89.18.35v.35c3.74,19.01,1.25,5.56,2.13,9.86.88,2.51,1.25,3.59,1.96,5.02,4.45,10.77,9.44,19.38,14.78,28.17,47.72,71.39,114.31,103.3,174.12,125.73,43.99,17.57,92.06,32.28,129.27,39.1,58.41,10.23,110.39,10.77,157.58,9.33-53.07-.54-93.48-.72-153.65-9.87-39.88-7.18,29.2-1.79,55.72-1.79,11.4-.36,28.48,8.07,40.07,7.35,24.93,1.44,47.19-.54,73.36-1.61,11.04-1.08,9.61,5.01,15.13,4.48,35.78-.54,63.2-8.07,85.82-6.1,17.44.91,32.94,1.97,48.08,2.87,9.6.36,19.04.72,29.01.55l19.42-1.62c46.47-3.4,100.23-6.82,149.91-5.74ZM517.78,909.4c20.12,4.66,36.15,11.66,50.21,18.47-15.86-3.05-35.78-9.87-50.21-18.47Z"/>
    <path class="st5" d="M1319.35,1021.5c-19.05-12.02-46.47-17.05-79.23-25.65-5.33-1.08-2.49-6.46-13.18-8.07-24.93-5.02-46.64-5.74-70.14-8.61-10.87,0-27.42-8.07-38.46-7.36-25.82-.35-92.06,7.18-53.06,7.36,58.22.71,95.96,1.07,145.81,11.12,40.78,6.82,79.25,19.54,117.88,39.1,11.56,6.82,19.04,10.22,28.12,18.83-9.25-9.33-23.85-17.76-37.75-26.72Z"/>
    <path class="st3" d="M1259.89,979.71c2.62,1.81,6.75,4.08,8.64,5.27-2.41-1.56-5.28-3.42-8.64-5.27Z"/>
    <path class="st2" d="M1269.31,984.98c.15.1.3.19.44.29-.13-.09-.28-.18-.44-.29Z"/>
    <path class="st6" d="M1046.47,959.51c-.61-.08-1.25-.17-1.94-.25.65.09,1.29.17,1.94.25Z"/>
    <g>
      <g>
        <path class="st0" d="M537.09,536.8c-2.6-1.57-4.35-3.26-5.25-5.1-.91-1.83-.33-3.72,1.75-5.68,2.07-1.96,5.84-3.2,11.29-3.72,28.02-3.66,43.45-5.75,46.31-6.27,14.79-2.61,24-2.74,27.63-.39,1.56,1.31,1.42,4.06-.39,8.23-4.15,8.37-6.23,17.64-6.23,27.83v94.09s0,128.2,0,128.2c12.97,0,24.26-1.83,33.86-5.49,9.6-3.66,17.12-7.9,22.57-12.74,5.45-4.83,10.31-9.73,14.59-14.7,4.28-4.96,8.82-9.08,13.62-12.35,4.8-3.26,10.05-4.9,15.76-4.9,4.67.26,9.01,2.22,13.04,5.88,4.02,3.66,6.81,8.17,8.37,13.53,1.56,5.36,2.2,10.85,1.95,16.47-.26,5.62-2.6,10.92-7.01,15.88-4.41,4.97-10.38,8.5-17.9,10.59-4.15,1.05-8.7,1.57-13.62,1.57h-145.16c-4.41,0-7.46-.59-9.15-1.76-1.69-1.18-1.5-3.85.58-8.04,3.89-8.36,5.84-17.64,5.84-27.83v-59.2s0-132.51,0-132.51c.26-9.67-3.89-16.86-12.45-21.56Z"/>
        <path class="st0" d="M918.88,776.73c1.81,4.18,1.95,6.8.39,7.84-.78.53-2.14.92-4.09,1.18-1.95.26-4.22.39-6.81.39h-26.07c-6.49,0-12.39-1.76-17.71-5.29-5.32-3.53-9.15-8.17-11.48-13.92-19.2,15.95-42.55,22.35-70.05,19.21-9.6-1.04-17.97-4.44-25.1-10.19-7.14-5.75-12.2-12.67-15.18-20.78-2.99-8.1-3.31-17.25-.97-27.44,2.34-10.19,7.78-19.73,16.35-28.62,7.78-8.36,16.54-14.7,26.27-19.01,9.73-4.31,20.49-7.77,32.3-10.39,11.8-2.61,20.3-4.96,25.49-7.06,6.74-3.14,10.83-8.62,12.26-16.47,1.42-7.84-.13-14.96-4.67-21.37-4.54-6.4-10.57-9.21-18.1-8.43-5.45.53-10.84,2.74-16.15,6.66-5.32,3.92-10.12,8.37-14.4,13.33-4.28,4.97-8.63,9.87-13.04,14.7-4.41,4.84-9.34,8.56-14.79,11.17-5.45,2.62-11.03,3.4-16.73,2.35-8.56-1.83-13.62-7.19-15.18-16.07-2.08-11.76,2.98-22.21,15.18-31.36,9.6-7.31,22.7-12.02,39.31-14.11,5.97-.78,15.69-1.18,29.19-1.18,26.2,0,47.41,9.35,63.63,28.03,16.21,18.69,24.32,41.89,24.32,69.59l-.39,49.01c0,10.19,2.07,19.6,6.23,28.23ZM850.38,751.64c1.81-3.39,2.72-11.5,2.72-24.31,0-12.8-.52-24.83-1.56-36.07l-1.17-16.47c-1.3.26-3.05.78-5.25,1.57-2.21.78-6.17,2.55-11.87,5.29-5.71,2.74-10.9,5.75-15.57,9.02-4.67,3.27-9.21,7.71-13.62,13.33-4.41,5.62-7.27,11.57-8.56,17.84-1.56,7.32-1.11,14.05,1.36,20.19,2.46,6.14,6.09,10.78,10.9,13.92,4.8,3.14,9.92,5.36,15.37,6.66,5.45,1.31,10.76.98,15.96-.98,5.19-1.96,8.95-5.29,11.29-10Z"/>
        <path class="st0" d="M1134.48,776.73c2.07,4.18,2.2,6.93.39,8.23-1.3.78-3.5,1.31-6.62,1.57h-62.27c-3.11-.26-5.32-.78-6.62-1.57-1.82-1.3-1.69-4.05.39-8.23,3.89-8.1,5.97-17.12,6.23-27.05l-.39-52.14c.26-1.04.39-2.55.39-4.51s-.07-5.75-.19-11.37c-.13-5.62-.46-10.91-.97-15.88-.52-4.96-1.3-10.59-2.34-16.86-1.04-6.27-2.4-11.63-4.09-16.07-1.69-4.44-4.03-8.17-7.01-11.17-2.99-3-6.29-4.51-9.92-4.51-9.09,0-17.12,8.37-24.13,25.09-6.23,14.64-9.34,30.97-9.34,49v57.63c0,3.66.26,6.8.78,9.41.78,6.54,2.59,12.68,5.45,18.43,1.81,4.18,1.95,6.93.39,8.23-1.56,1.05-4.28,1.57-8.17,1.57h-59.54c-3.64,0-6.23-.52-7.78-1.57-1.82-1.3-1.69-4.05.39-8.23,3.89-8.36,5.84-17.64,5.84-27.83v-97.23c0-9.67-4.03-16.86-12.06-21.56h-.39c-2.6-1.57-4.35-3.26-5.25-5.1-.91-1.83-.33-3.72,1.75-5.68,2.07-1.96,5.84-3.2,11.29-3.72,10.9-1.3,29.71-3.79,56.43-7.45,3.11-.26,5.7.59,7.78,2.55,2.07,1.96,3.11,4.38,3.11,7.25v9.02c4.67-8.1,10.25-14.17,16.73-18.23,6.48-4.05,12.84-6.33,19.07-6.86,11.93-.78,22.77.39,32.5,3.53,9.73,3.14,17.45,7.52,23.16,13.13,5.7,5.62,10.64,11.83,14.79,18.62,4.15,6.8,7.13,13.72,8.95,20.78,1.81,7.06,3.17,13.53,4.09,19.41.91,5.88,1.23,10.78.97,14.7v5.49s.39,50.97.39,50.97c0,10.46,1.95,19.87,5.84,28.23Z"/>
        <path class="st0" d="M1328.68,748.89c0,10.19,1.95,19.47,5.84,27.83,2.07,4.18,2.27,6.86.58,8.04-1.69,1.18-4.61,1.76-8.76,1.76h-68.11c-15.31.26-29.19-1.24-41.64-4.51-12.45-3.26-22.51-7.51-30.16-12.74-7.66-5.23-14.27-11.04-19.85-17.45-5.58-6.4-9.67-12.8-12.26-19.21-2.6-6.4-4.61-12.21-6.03-17.45-1.43-5.23-2.14-9.54-2.14-12.94l-.39-5.1c0-1.3.06-3.14.19-5.49.13-2.35.78-6.99,1.95-13.92,1.17-6.92,2.78-13.46,4.86-19.6,2.07-6.14,5.58-12.94,10.51-20.39,4.93-7.45,10.83-13.78,17.71-19.01,6.87-5.23,15.89-9.47,27.05-12.74,11.15-3.26,23.74-4.64,37.75-4.12,6.74.26,13.49,1.44,20.24,3.53v-48.22c0-9.67-4.15-16.86-12.45-21.56h-.39c-2.34-1.57-3.96-3.26-4.87-5.1-.91-1.83-.39-3.72,1.56-5.68,1.95-1.96,5.77-3.2,11.48-3.72,28.02-3.66,43.33-5.75,45.92-6.27,15.04-2.61,24.26-2.74,27.63-.39,1.81,1.31,1.68,4.06-.39,8.23-3.89,8.37-5.84,17.64-5.84,27.83v198.37ZM1266.03,773.2v-149.37c-7.27-5.75-15.7-8.23-25.3-7.45-6.75.26-12.52,3.27-17.32,9.02-4.8,5.75-8.11,12.55-9.92,20.39-1.82,7.84-3.18,15.68-4.09,23.52-.91,7.84-1.36,14.38-1.36,19.6l.39,8.23c0,2.62,0,4.9,0,6.86,0,1.96.39,5.75,1.17,11.37.78,5.62,1.81,10.65,3.11,15.09,1.3,4.45,3.37,9.48,6.23,15.09,2.85,5.62,6.23,10.33,10.12,14.11,3.89,3.79,9.01,7,15.37,9.61,6.35,2.62,13.55,3.92,21.6,3.92Z"/>
        <path class="st0" d="M2052.54,523.86c-1.04,1.83-2.92,4.45-5.64,7.84-2.72,3.4-5.06,6.47-7.01,9.21-1.95,2.74-3.7,5.68-5.25,8.82l-111.7,224.25c12.97,0,24.38-1.76,34.25-5.29,9.86-3.53,17.51-7.77,22.96-12.74,5.45-4.96,10.31-9.93,14.59-14.9,4.28-4.96,8.82-9.08,13.62-12.35,4.8-3.26,10.05-4.9,15.76-4.9,4.67.26,8.95,2.22,12.84,5.88,3.89,3.66,6.68,8.17,8.37,13.53,1.68,5.36,2.4,10.85,2.14,16.47-.26,5.62-2.6,10.92-7.01,15.88-4.41,4.97-10.51,8.5-18.29,10.59-3.89,1.05-8.31,1.57-13.23,1.57h-146.33c-4.15.26-7.14-.26-8.95-1.57-2.34-1.57-2.07-4.18.78-7.84,1.03-1.57,2.98-4.18,5.84-7.84,2.85-3.66,5.25-6.86,7.2-9.61,1.95-2.74,3.7-5.81,5.25-9.21l108.97-223.07c-12.2.26-22.9,2.22-32.11,5.88-9.21,3.66-16.41,7.91-21.6,12.74-5.19,4.84-9.92,9.67-14.2,14.51-4.28,4.84-8.76,8.89-13.43,12.15-4.67,3.27-9.86,4.77-15.57,4.51-4.67-.26-8.95-2.16-12.84-5.68-3.89-3.53-6.68-8.04-8.37-13.53-1.69-5.49-2.4-11.04-2.14-16.66.26-5.62,2.59-10.91,7.01-15.88,4.41-4.96,10.51-8.49,18.29-10.59,3.89-1.04,8.3-1.57,13.23-1.57h144.77c3.89,0,6.74.53,8.56,1.57,2.34,1.57,2.07,4.18-.78,7.84Z"/>
        <path class="st0" d="M2196.15,731.64c3.63-2.87,8.23-4.51,13.82-4.9,5.58-.39,10.83.39,15.76,2.35,4.93,1.96,9.08,4.64,12.45,8.04,3.37,3.4,4.8,7.71,4.28,12.94-.52,5.23-3.25,10.72-8.17,16.47-8.82,9.41-20.24,16.07-34.25,19.99-14.01,3.92-27.77,5.88-41.25,5.88-15.05-.26-28.54-2.16-40.47-5.68-11.94-3.53-21.47-8.1-28.6-13.72-7.14-5.62-13.3-11.82-18.49-18.62-5.19-6.79-8.89-13.53-11.09-20.19-2.21-6.66-3.96-12.8-5.25-18.43-1.3-5.62-1.95-10.13-1.95-13.53v-5.1c0-1.3.06-3.07.19-5.29.13-2.22.78-6.53,1.95-12.94,1.17-6.4,2.85-12.48,5.06-18.23,2.2-5.75,5.77-12.28,10.7-19.6,4.93-7.31,10.76-13.59,17.51-18.82,6.74-5.23,15.76-9.8,27.05-13.72,11.29-3.92,23.8-6.14,37.56-6.66,5.97-.26,12.71.26,20.24,1.57,7.52,1.31,15.5,3.53,23.93,6.66,8.43,3.14,15.43,8.17,21.02,15.09,5.58,6.93,8.37,15.09,8.37,24.5,0,9.15-1.82,17.45-5.45,24.89-3.64,7.45-8.7,13.72-15.18,18.82-6.49,5.1-13.3,9.48-20.43,13.13-7.14,3.66-15.12,6.6-23.93,8.82-8.82,2.22-16.48,3.92-22.96,5.1-6.49,1.18-13.1,2.03-19.85,2.55,6.48,33.19,19.2,51.49,38.14,54.89,8.56,1.57,15.57.53,21.02-3.14,4.93-3.14,7.52-6.4,7.78-9.8.52-2.35.45-5.81-.19-10.39-.65-4.57-.33-8.62.97-12.15,1.3-3.53,4.54-7.12,9.73-10.78ZM2115.59,697.14c0,2.1.13,4.97.39,8.62,8.3-3.92,15.31-8.04,21.02-12.35,5.7-4.31,10.31-8.95,13.82-13.92,3.5-4.96,6.16-9.27,7.98-12.94,1.81-3.66,3.76-8.1,5.84-13.33,1.81-4.96,2.72-10.32,2.72-16.07.26-5.49-.97-10.39-3.7-14.7-2.72-4.31-6.81-6.73-12.26-7.25-7.78-.26-14.34,2.29-19.65,7.64-5.32,5.36-9.02,12.09-11.09,20.19-2.08,8.1-3.57,16.21-4.48,24.31-.91,8.1-1.23,15.16-.97,21.17l.39,8.62Z"/>
        <path class="st0" d="M2393.08,731.64c3.63-2.87,8.23-4.51,13.82-4.9,5.58-.39,10.83.39,15.76,2.35,4.93,1.96,9.08,4.64,12.45,8.04,3.37,3.4,4.8,7.71,4.28,12.94-.52,5.23-3.25,10.72-8.17,16.47-8.82,9.41-20.24,16.07-34.25,19.99-14.01,3.92-27.77,5.88-41.25,5.88-15.05-.26-28.54-2.16-40.47-5.68-11.94-3.53-21.47-8.1-28.6-13.72-7.14-5.62-13.3-11.82-18.49-18.62-5.19-6.79-8.89-13.53-11.09-20.19-2.21-6.66-3.96-12.8-5.25-18.43-1.3-5.62-1.95-10.13-1.95-13.53v-5.1c0-1.3.06-3.07.19-5.29.13-2.22.78-6.53,1.95-12.94,1.17-6.4,2.85-12.48,5.06-18.23,2.2-5.75,5.77-12.28,10.7-19.6,4.93-7.31,10.76-13.59,17.51-18.82,6.74-5.23,15.76-9.8,27.05-13.72,11.29-3.92,23.8-6.14,37.56-6.66,5.97-.26,12.71.26,20.24,1.57,7.52,1.31,15.5,3.53,23.93,6.66,8.43,3.14,15.43,8.17,21.02,15.09,5.58,6.93,8.37,15.09,8.37,24.5,0,9.15-1.82,17.45-5.45,24.89-3.64,7.45-8.7,13.72-15.18,18.82-6.49,5.1-13.3,9.48-20.43,13.13-7.14,3.66-15.12,6.6-23.93,8.82-8.82,2.22-16.48,3.92-22.96,5.1-6.49,1.18-13.1,2.03-19.85,2.55,6.48,33.19,19.2,51.49,38.14,54.89,8.56,1.57,15.57.53,21.02-3.14,4.93-3.14,7.52-6.4,7.78-9.8.52-2.35.45-5.81-.19-10.39-.65-4.57-.33-8.62.97-12.15,1.3-3.53,4.54-7.12,9.73-10.78ZM2312.52,697.14c0,2.1.13,4.97.39,8.62,8.3-3.92,15.31-8.04,21.02-12.35,5.7-4.31,10.31-8.95,13.82-13.92,3.5-4.96,6.16-9.27,7.98-12.94,1.81-3.66,3.76-8.1,5.84-13.33,1.81-4.96,2.72-10.32,2.72-16.07.26-5.49-.97-10.39-3.7-14.7-2.72-4.31-6.81-6.73-12.26-7.25-7.78-.26-14.34,2.29-19.65,7.64-5.32,5.36-9.02,12.09-11.09,20.19-2.08,8.1-3.57,16.21-4.48,24.31-.91,8.1-1.23,15.16-.97,21.17l.39,8.62Z"/>
      </g>
      <g>
        <path class="st7" d="M725.2,413.58c0-1.54-.13-2.85-.38-3.95-.25-1.1-.7-1.99-1.33-2.69-.64-.69-1.52-1.21-2.64-1.54-1.13-.33-2.56-.49-4.3-.49-2.4,0-5.46.27-9.2.82l-.65-4.88c3.38-.62,7.07-1.26,11.08-1.92,4.01-.66,8.13-1.26,12.36-1.81,4.23-.55,8.48-1,12.74-1.34,4.27-.35,8.36-.52,12.28-.52,5.26,0,10.15.47,14.65,1.4,4.5.93,8.4,2.49,11.71,4.66,3.3,2.18,5.9,5.04,7.79,8.58,1.89,3.55,2.83,7.95,2.83,13.22,0,4.86-.79,9.32-2.37,13.36-1.58,4.04-3.81,7.65-6.7,10.83-2.89,3.18-6.38,5.91-10.48,8.17-4.1,2.27-8.68,4.06-13.72,5.38,3.77,6.51,7.21,12.23,10.29,17.17,3.08,4.94,5.92,9.26,8.49,12.97,2.58,3.71,4.94,6.89,7.08,9.54,2.14,2.65,4.16,4.95,6.04,6.88,1.49,1.57,2.89,2.9,4.19,3.98,1.31,1.08,2.57,1.95,3.78,2.61,1.22.66,2.44,1.13,3.68,1.43,1.23.29,2.52.44,3.87.44,1.45,0,2.83-.15,4.14-.44,1.31-.29,2.74-.73,4.3-1.32l1.52,4.5c-4.61,2.12-8.69,3.7-12.25,4.74-3.56,1.04-6.53,1.56-8.93,1.56-1.2,0-2.34-.14-3.43-.41-1.09-.27-2.16-.69-3.21-1.23-1.05-.55-2.11-1.25-3.16-2.11-1.05-.86-2.18-1.87-3.38-3.04-1.96-1.86-4.23-4.4-6.81-7.6-2.58-3.2-5.49-7.2-8.74-12.01-3.25-4.81-6.85-10.5-10.81-17.09-3.96-6.58-8.31-14.19-13.07-22.82l.11-.71c6.43-.26,11.85-1.15,16.28-2.69,4.43-1.54,8.01-3.62,10.75-6.25,2.74-2.63,4.73-5.77,5.96-9.41,1.23-3.64,1.85-7.71,1.85-12.2,0-8.63-2.25-15.08-6.75-19.36-4.5-4.28-11.16-6.42-19.98-6.42-1.89,0-3.68.07-5.39.22-1.71.15-3.59.35-5.66.6-.07,2.82-.17,6.58-.3,11.3-.13,4.72-.27,10.14-.44,16.26-.16,6.13-.35,12.84-.57,20.13-.22,7.3-.44,14.92-.65,22.87-.22,7.95-.45,16.13-.71,24.52-.25,8.39-.51,16.76-.76,25.09l-12.91,1.65-.98-.11c.44-10.49.83-20.44,1.2-29.84.36-9.4.66-18.55.9-27.45.24-8.9.43-17.72.57-26.44.14-8.72.22-17.65.22-26.8Z"/>
        <path class="st7" d="M869.99,505.57c.22.11.5.27.84.47.35.2.66.42.95.66.29.24.54.49.76.77.22.27.33.54.33.8,0,.15-.05.29-.16.44-2.03,2.85-4.22,5.33-6.56,7.43-2.34,2.1-4.77,3.86-7.3,5.27-2.52,1.41-5.09,2.45-7.71,3.13-2.61.68-5.19,1.01-7.73,1.01-4.36,0-8.35-.9-11.98-2.69-3.63-1.79-6.75-4.24-9.37-7.35-2.61-3.11-4.66-6.76-6.13-10.94-1.47-4.19-2.21-8.68-2.21-13.47,0-3.91.43-7.83,1.28-11.74.85-3.91,2.09-7.64,3.7-11.19,1.61-3.55,3.58-6.85,5.91-9.9,2.32-3.05,4.96-5.7,7.92-7.95,2.96-2.25,6.21-4.01,9.75-5.29,3.54-1.28,7.34-1.92,11.41-1.92,2.69,0,5.25.37,7.68,1.1,2.43.73,4.56,1.78,6.4,3.15,1.83,1.37,3.29,3.06,4.38,5.07,1.09,2.01,1.63,4.3,1.63,6.86,0,3.73-1.21,6.99-3.62,9.76-2.41,2.78-5.74,5.14-9.99,7.08-4.25,1.94-9.25,3.5-15,4.69-5.75,1.19-11.97,2.08-18.65,2.66v.93c0,4.68.59,8.96,1.77,12.84,1.18,3.88,2.8,7.2,4.87,9.96,2.07,2.76,4.5,4.91,7.3,6.45,2.79,1.54,5.81,2.3,9.04,2.3,3.27,0,6.62-.81,10.05-2.44,3.43-1.63,6.91-4.27,10.43-7.93ZM859.76,461.52c0-1.68-.28-3.25-.84-4.72-.56-1.46-1.34-2.73-2.34-3.81-1-1.08-2.19-1.93-3.57-2.55-1.38-.62-2.87-.93-4.46-.93-2.36,0-4.5.42-6.43,1.26-1.92.84-3.65,1.98-5.17,3.43-1.52,1.45-2.87,3.13-4.03,5.05-1.16,1.92-2.15,3.96-2.97,6.12-.82,2.16-1.48,4.37-1.99,6.64-.51,2.27-.87,4.48-1.09,6.64,5.15-.37,9.77-1,13.86-1.89,4.08-.9,7.53-2.05,10.35-3.46,2.81-1.41,4.96-3.09,6.45-5.05,1.49-1.96,2.23-4.2,2.23-6.72Z"/>
        <path class="st7" d="M891.5,502.77c.25,2.78.99,5.17,2.21,7.19,1.22,2.01,2.71,3.66,4.49,4.94,1.78,1.28,3.75,2.23,5.91,2.85,2.16.62,4.31.93,6.45.93,2,0,3.92-.27,5.77-.82,1.85-.55,3.49-1.33,4.9-2.36,1.42-1.02,2.55-2.28,3.4-3.78.85-1.5,1.28-3.18,1.28-5.05,0-1.94-.45-3.64-1.36-5.1-.91-1.46-2.12-2.8-3.65-4-1.53-1.21-3.29-2.32-5.31-3.35-2.01-1.02-4.11-2.07-6.29-3.13-1.92-.91-3.86-1.84-5.8-2.77-1.94-.93-3.82-1.95-5.64-3.04-1.82-1.1-3.51-2.28-5.09-3.57-1.58-1.28-2.96-2.7-4.14-4.25-1.18-1.55-2.11-3.29-2.78-5.21-.67-1.92-1.01-4.05-1.01-6.39,0-2.52.44-4.85,1.31-6.97.87-2.12,2.06-4.03,3.57-5.73,1.51-1.7,3.25-3.19,5.23-4.47,1.98-1.28,4.09-2.35,6.34-3.21,2.25-.86,4.56-1.5,6.94-1.92,2.38-.42,4.69-.63,6.94-.63,2.9,0,5.65.32,8.25.96,2.6.64,4.86,1.57,6.81,2.8,1.94,1.23,3.49,2.72,4.63,4.47,1.14,1.76,1.72,3.73,1.72,5.92,0,.84-.15,1.76-.44,2.74-.29.99-.78,1.91-1.47,2.77-.69.86-1.6,1.58-2.72,2.17-1.13.59-2.5.9-4.14.93-1.53,0-3.12-.24-4.79-.71l-.16-.55c.51-1.17.87-2.25,1.09-3.24.22-.99.33-1.9.33-2.74-.04-1.68-.46-3.1-1.28-4.25-.82-1.15-1.84-2.09-3.08-2.82-1.23-.73-2.61-1.26-4.11-1.59-1.51-.33-2.99-.49-4.44-.49-2.58,0-4.88.35-6.92,1.04-2.03.7-3.75,1.62-5.15,2.77-1.4,1.15-2.47,2.46-3.21,3.92-.74,1.46-1.12,2.98-1.12,4.55,0,2.01.53,3.81,1.58,5.4,1.05,1.59,2.45,3.05,4.19,4.39,1.74,1.34,3.75,2.59,6.02,3.76,2.27,1.17,4.64,2.34,7.11,3.51,2.76,1.32,5.5,2.68,8.22,4.09,2.72,1.41,5.15,3.01,7.3,4.8,2.14,1.79,3.87,3.85,5.2,6.17,1.32,2.32,1.99,5.06,1.99,8.2,0,3.77-.83,7.11-2.48,10.04-1.65,2.93-3.86,5.39-6.62,7.41-2.76,2.01-5.93,3.54-9.5,4.58-3.58,1.04-7.29,1.56-11.14,1.56-1.92,0-3.91-.15-5.96-.44-2.05-.29-4.04-.73-5.96-1.32-1.92-.59-3.75-1.31-5.47-2.17-1.72-.86-3.23-1.85-4.52-2.96-1.29-1.12-2.31-2.36-3.05-3.73-.74-1.37-1.12-2.88-1.12-4.53,0-1.43.3-2.63.9-3.62.6-.99,1.39-1.79,2.37-2.41.98-.62,2.08-1.09,3.29-1.4,1.22-.31,2.46-.48,3.73-.52l.44.38Z"/>
        <path class="st7" d="M947.59,491.03c0-3.69.38-7.44,1.14-11.24.76-3.8,1.89-7.49,3.38-11.05,1.49-3.57,3.33-6.91,5.53-10.04,2.2-3.13,4.73-5.86,7.6-8.2,2.87-2.34,6.06-4.19,9.58-5.54,3.52-1.35,7.35-2.03,11.49-2.03,4.65,0,8.76.99,12.33,2.96,3.57,1.97,6.58,4.58,9.01,7.82,2.43,3.24,4.27,6.92,5.53,11.05,1.25,4.13,1.88,8.36,1.88,12.67,0,3.69-.38,7.44-1.14,11.24-.76,3.8-1.9,7.49-3.4,11.05-1.51,3.57-3.36,6.91-5.55,10.04-2.2,3.13-4.73,5.86-7.6,8.2-2.87,2.34-6.06,4.19-9.58,5.54-3.52,1.35-7.35,2.03-11.49,2.03-4.65,0-8.76-.99-12.33-2.96-3.58-1.97-6.57-4.58-8.98-7.82-2.41-3.24-4.25-6.92-5.5-11.05-1.25-4.13-1.88-8.36-1.88-12.67ZM960.6,485.82c0,2.49.19,5.01.57,7.57.38,2.56.97,5.03,1.77,7.41.8,2.38,1.79,4.6,2.97,6.66,1.18,2.07,2.58,3.87,4.19,5.4,1.61,1.54,3.43,2.74,5.45,3.62,2.01.88,4.24,1.32,6.67,1.32,2.65,0,4.98-.58,7-1.73,2.01-1.15,3.76-2.68,5.23-4.58,1.47-1.9,2.69-4.08,3.65-6.53.96-2.45,1.73-4.98,2.31-7.6.58-2.61.99-5.2,1.23-7.76.24-2.56.35-4.92.35-7.08,0-2.52-.19-5.05-.57-7.6-.38-2.54-.97-4.99-1.77-7.35-.8-2.36-1.79-4.57-2.97-6.64-1.18-2.07-2.58-3.86-4.19-5.38-1.62-1.52-3.43-2.72-5.45-3.59-2.01-.88-4.24-1.32-6.67-1.32-2.65,0-4.98.57-7,1.7-2.01,1.13-3.76,2.65-5.23,4.55-1.47,1.9-2.69,4.08-3.65,6.53-.96,2.45-1.73,4.97-2.31,7.57-.58,2.6-.99,5.18-1.23,7.76-.24,2.58-.35,4.93-.35,7.05Z"/>
        <path class="st7" d="M1035.53,524l-.87-.05c.29-3.47.56-7.26.82-11.35.25-4.1.49-8.26.71-12.48.22-4.22.41-8.41.57-12.56.16-4.15.31-8.03.44-11.63.13-3.6.22-6.83.27-9.68.05-2.85.08-5.1.08-6.75,0-1.35-.05-2.52-.16-3.51s-.35-1.81-.73-2.47-.93-1.14-1.66-1.45c-.73-.31-1.71-.47-2.94-.47-.62,0-1.25.04-1.91.11-.65.07-1.38.18-2.18.33-.8.15-1.7.34-2.69.58-1,.24-2.15.52-3.46.85l-.82-3.95c6.03-2.19,10.91-3.74,14.65-4.63,3.74-.9,6.26-1.34,7.57-1.34,2.4,0,4.11.7,5.15,2.11,1.03,1.41,1.55,3.5,1.55,6.28,0,.26-.04,1.01-.11,2.25-.07,1.24-.17,2.86-.3,4.85-.13,1.99-.28,4.31-.46,6.94-.18,2.63-.39,5.46-.63,8.47-.24,3.02-.5,6.16-.79,9.43-.29,3.27-.6,6.54-.93,9.79l.54.05c1.74-7.17,3.71-13.85,5.91-20.05,2.2-6.2,4.66-11.58,7.41-16.15,2.74-4.57,5.75-8.16,9.04-10.78,3.28-2.61,6.89-3.92,10.81-3.92,1.38,0,2.67.22,3.87.66,1.2.44,2.23,1.05,3.1,1.84.87.79,1.56,1.72,2.07,2.8.51,1.08.76,2.26.76,3.54,0,1.65-.35,3.23-1.06,4.74-.71,1.52-1.82,2.86-3.35,4.03h-.44c-1.52-1.28-2.97-2.2-4.33-2.77-1.36-.57-2.8-.85-4.33-.85-1.63,0-3.21.31-4.74.93-1.52.62-2.92,1.52-4.19,2.69-2.07,1.9-3.99,4.42-5.77,7.54-1.78,3.13-3.4,6.59-4.87,10.39-1.47,3.8-2.8,7.8-3.98,11.99-1.18,4.19-2.2,8.26-3.05,12.23-.85,3.97-1.54,7.7-2.07,11.19-.53,3.49-.9,6.43-1.12,8.8l-11.38,1.43Z"/>
        <path class="st7" d="M1112.52,447.43c1.71.07,3.37.13,4.98.16,1.61.04,3.12.07,4.52.11,1.4.04,2.67.05,3.81.05s2.1,0,2.86,0c3.3,0,6.01-.2,8.11-.6.18.62.33,1.19.44,1.7.11.51.16.99.16,1.43,0,1.61-.66,2.65-1.99,3.13-1.33.48-3.24.71-5.74.71-2.4,0-5.07-.15-8.03-.44-2.96-.29-6.2-.57-9.72-.82-.4,3.91-.73,7.73-1.01,11.44-.27,3.71-.49,7.21-.65,10.5-.16,3.29-.28,6.34-.35,9.16-.07,2.82-.11,5.27-.11,7.35,0,3.91.2,7.41.6,10.48.4,3.07,1.11,5.68,2.12,7.82,1.02,2.14,2.41,3.78,4.19,4.91,1.78,1.13,4.03,1.7,6.75,1.7,1.96,0,4.15-.35,6.56-1.04,2.41-.69,5.16-1.81,8.25-3.35.98.99,1.54,2.19,1.69,3.62-2.25,1.5-4.52,2.86-6.81,4.09-2.29,1.23-4.54,2.28-6.75,3.15-2.21.88-4.36,1.55-6.43,2.03-2.07.47-4.03.71-5.88.71-2.43,0-4.66-.46-6.67-1.37-2.01-.91-3.76-2.5-5.23-4.77-1.47-2.27-2.61-5.34-3.43-9.22-.82-3.88-1.23-8.78-1.23-14.7,0-7.42.21-14.72.63-21.89.42-7.17.97-14.11,1.66-20.84-1.52.04-2.93.11-4.22.22-1.29.11-2.46.29-3.51.55-.04-.11-.05-.26-.05-.44v-.33c0-1.5.75-2.62,2.26-3.37,1.51-.75,3.53-1.33,6.07-1.73.44-4.39.91-8.57,1.42-12.56.51-3.99,1.01-7.69,1.5-11.11.49-3.42.97-6.53,1.44-9.32.47-2.8.89-5.2,1.25-7.21.18-.95.52-1.74,1.01-2.36.49-.62,1.06-1.12,1.72-1.48.65-.37,1.36-.62,2.12-.77.76-.15,1.51-.22,2.23-.22,1.2,0,2.28.13,3.24.38.96.26,1.86.62,2.7,1.1-1.52,6.95-2.8,14.12-3.84,21.53-1.03,7.41-1.92,14.71-2.64,21.91Z"/>
      </g>
      <g>
        <path class="st7" d="M1476.87,924.14c1.56-5.18,3.23-9.57,4.98-13.17,1.76-3.6,3.55-6.52,5.36-8.77,1.82-2.24,3.63-3.86,5.44-4.87,1.81-1,3.54-1.5,5.18-1.5,1.14,0,2.23.22,3.29.66,1.06.44,2,1.12,2.82,2.04.82.92,1.48,2.11,1.97,3.56.49,1.45.73,3.19.73,5.22,0,.61-.04,1.45-.11,2.5-.07,1.05-.16,2.23-.26,3.53-.1,1.3-.22,2.67-.35,4.1-.13,1.43-.25,2.85-.35,4.24-.1,1.39-.19,2.71-.26,3.96-.07,1.25-.11,2.32-.11,3.22,0,1.6.07,2.9.2,3.9.13,1,.35,1.8.66,2.38s.71.98,1.22,1.2c.51.21,1.13.32,1.86.32,1.06,0,2.15-.15,3.29-.45,1.14-.3,2.29-.71,3.44-1.24l.58,1.6c-.73.59-1.66,1.2-2.77,1.81-1.12.61-2.29,1.18-3.52,1.69s-2.45.93-3.67,1.24c-1.22.32-2.3.48-3.23.48-1.1,0-1.96-.3-2.59-.89-.63-.59-1.1-1.4-1.42-2.43-.32-1.02-.52-2.22-.61-3.59-.09-1.37-.14-2.84-.14-4.42,0-1.9.07-3.87.2-5.9s.27-3.97.43-5.83c.15-1.86.29-3.57.43-5.11.13-1.55.2-2.79.2-3.73,0-2.27-.44-3.98-1.31-5.11-.87-1.14-2.05-1.7-3.54-1.7-1.16,0-2.39.5-3.7,1.5-1.31,1-2.61,2.38-3.9,4.13-1.29,1.75-2.54,3.82-3.73,6.2-1.2,2.38-2.28,4.96-3.23,7.74-.96,2.77-1.75,5.68-2.38,8.7-.63,3.03-1.03,6.06-1.19,9.09l-6.49.8-.49-.03c.12-2.42.26-5.08.41-8,.15-2.92.31-6.01.49-9.29.17-3.27.36-6.69.55-10.24.19-3.55.39-7.17.58-10.85.19-3.68.39-7.4.59-11.15s.4-7.45.59-11.1c.19-3.65.38-7.23.56-10.73.18-3.5.36-6.85.52-10.04.02-.49.16-.92.43-1.27.26-.36.6-.64,1.02-.86.42-.21.89-.37,1.42-.48.53-.1,1.08-.15,1.65-.15,1.22,0,2.5.33,3.84.98-.47,4.18-.88,8.01-1.25,11.5-.37,3.49-.7,6.72-.99,9.7s-.56,5.76-.79,8.34c-.23,2.58-.45,5.05-.64,7.41-.19,2.36-.37,4.67-.53,6.92-.16,2.25-.33,4.54-.49,6.86-.16,2.32-.33,4.74-.5,7.25-.17,2.51-.36,5.2-.56,8.09l.18.03Z"/>
        <path class="st7" d="M1550.26,930.93c.12.06.28.15.47.26.19.11.37.24.53.37.16.13.31.28.43.43.12.15.18.3.18.45,0,.08-.03.16-.09.25-1.14,1.6-2.36,2.98-3.67,4.16-1.31,1.18-2.67,2.16-4.08,2.95s-2.85,1.37-4.31,1.75c-1.46.38-2.91.57-4.33.57-2.44,0-4.67-.5-6.71-1.5-2.03-1-3.78-2.37-5.24-4.11-1.46-1.74-2.61-3.78-3.43-6.13-.82-2.34-1.23-4.86-1.23-7.54,0-2.19.24-4.38.72-6.57.48-2.19,1.17-4.28,2.07-6.26.9-1.99,2.01-3.83,3.31-5.54,1.3-1.71,2.78-3.19,4.44-4.45,1.66-1.26,3.47-2.25,5.46-2.96,1.98-.72,4.11-1.07,6.39-1.07,1.5,0,2.94.2,4.3.61,1.36.41,2.56,1,3.58,1.77s1.84,1.71,2.45,2.84c.61,1.13.91,2.41.91,3.84,0,2.09-.68,3.91-2.03,5.47-1.35,1.56-3.22,2.88-5.59,3.96-2.38,1.09-5.18,1.96-8.4,2.63-3.22.67-6.7,1.16-10.44,1.49v.52c0,2.62.33,5.02.99,7.18.66,2.17,1.57,4.03,2.73,5.57,1.16,1.55,2.52,2.75,4.08,3.61,1.56.86,3.25,1.29,5.06,1.29,1.83,0,3.7-.46,5.62-1.37,1.92-.91,3.87-2.39,5.84-4.44ZM1544.53,906.27c0-.94-.16-1.82-.47-2.64-.32-.82-.75-1.53-1.31-2.13-.56-.6-1.22-1.08-2-1.43-.77-.35-1.61-.52-2.5-.52-1.32,0-2.52.24-3.6.71-1.08.47-2.04,1.11-2.9,1.92-.85.81-1.61,1.75-2.26,2.82-.65,1.07-1.2,2.22-1.66,3.42-.46,1.21-.83,2.45-1.11,3.72-.28,1.27-.49,2.51-.61,3.72,2.89-.2,5.47-.56,7.76-1.06,2.29-.5,4.22-1.15,5.79-1.93,1.57-.79,2.78-1.73,3.61-2.82.83-1.09,1.25-2.35,1.25-3.76Z"/>
        <path class="st7" d="M1573.55,874.06c-.85,3.89-1.57,7.91-2.15,12.05-.58,4.15-1.07,8.23-1.48,12.27.96.04,1.88.07,2.79.09.9.02,1.75.04,2.53.06.78.02,1.49.03,2.13.03h1.6c1.85,0,3.36-.11,4.54-.34.1.35.18.67.24.95.06.29.09.55.09.8,0,.9-.37,1.48-1.11,1.75-.74.27-1.81.4-3.22.4-1.34,0-2.84-.08-4.5-.25-1.66-.16-3.47-.32-5.44-.46-.22,2.19-.41,4.32-.56,6.4-.15,2.08-.27,4.04-.37,5.88-.09,1.84-.16,3.55-.2,5.13-.04,1.58-.06,2.95-.06,4.11,0,2.19.11,4.15.34,5.86.22,1.72.62,3.18,1.19,4.38.57,1.2,1.35,2.11,2.35,2.75,1,.63,2.26.95,3.78.95,1.1,0,2.32-.19,3.67-.58,1.35-.39,2.89-1.01,4.62-1.87.55.55.86,1.23.94,2.03-1.26.84-2.53,1.6-3.81,2.29-1.28.69-2.54,1.27-3.78,1.77-1.24.49-2.44.87-3.6,1.14-1.16.27-2.26.4-3.29.4-1.36,0-2.61-.25-3.73-.75-1.13-.5-2.1-1.39-2.93-2.67-.82-1.28-1.46-3-1.92-5.17-.46-2.17-.69-4.91-.69-8.23,0-1.86.03-3.78.09-5.76.06-1.98.14-3.98.24-6,.1-2.03.23-4.05.4-6.08.16-2.03.35-4.02.55-5.99-1.61.02-3.09.09-4.47.2-1.37.11-2.54.29-3.52.54-.06-.12-.09-.27-.09-.43,0-.43.21-.83.62-1.21.42-.38,1-.72,1.74-1.03.74-.31,1.63-.56,2.67-.77,1.04-.2,2.17-.35,3.41-.43.47-4.28.96-8.32,1.49-12.13.53-3.81,1.06-7.21,1.59-10.19.1-.53.29-.97.56-1.32.27-.35.59-.62.96-.83.37-.2.76-.35,1.19-.43.43-.08.84-.12,1.25-.12.67,0,1.28.07,1.81.21.54.14,1.04.35,1.51.61Z"/>
        <path class="st7" d="M1619.15,924.14c1.56-5.18,3.23-9.57,4.98-13.17,1.76-3.6,3.55-6.52,5.36-8.77,1.82-2.24,3.63-3.86,5.44-4.87,1.81-1,3.54-1.5,5.18-1.5,1.14,0,2.23.22,3.29.66,1.06.44,2,1.12,2.82,2.04.82.92,1.48,2.11,1.97,3.56.49,1.45.73,3.19.73,5.22,0,.61-.04,1.45-.11,2.5-.07,1.05-.16,2.23-.26,3.53-.1,1.3-.22,2.67-.35,4.1-.13,1.43-.25,2.85-.35,4.24-.1,1.39-.19,2.71-.26,3.96-.07,1.25-.11,2.32-.11,3.22,0,1.6.07,2.9.2,3.9.13,1,.35,1.8.66,2.38s.71.98,1.22,1.2c.51.21,1.13.32,1.86.32,1.06,0,2.15-.15,3.29-.45,1.14-.3,2.29-.71,3.44-1.24l.58,1.6c-.73.59-1.66,1.2-2.77,1.81-1.12.61-2.29,1.18-3.52,1.69-1.23.51-2.45.93-3.67,1.24-1.22.32-2.3.48-3.23.48-1.1,0-1.96-.3-2.59-.89-.63-.59-1.1-1.4-1.42-2.43-.32-1.02-.52-2.22-.61-3.59-.09-1.37-.14-2.84-.14-4.42,0-1.9.07-3.87.2-5.9.13-2.03.27-3.97.43-5.83.15-1.86.29-3.57.43-5.11.13-1.55.2-2.79.2-3.73,0-2.27-.44-3.98-1.31-5.11-.87-1.14-2.05-1.7-3.54-1.7-1.16,0-2.39.5-3.7,1.5-1.31,1-2.61,2.38-3.9,4.13-1.29,1.75-2.54,3.82-3.73,6.2-1.2,2.38-2.28,4.96-3.23,7.74-.96,2.77-1.75,5.68-2.38,8.7-.63,3.03-1.03,6.06-1.19,9.09l-6.49.8-.49-.03c.12-2.42.26-5.08.41-8,.15-2.92.31-6.01.49-9.29.17-3.27.36-6.69.55-10.24.19-3.55.39-7.17.58-10.85.19-3.68.39-7.4.59-11.15.2-3.75.4-7.45.59-11.1.19-3.65.38-7.23.56-10.73s.36-6.85.52-10.04c.02-.49.16-.92.43-1.27.26-.36.6-.64,1.02-.86.42-.21.89-.37,1.42-.48.53-.1,1.08-.15,1.65-.15,1.22,0,2.5.33,3.84.98-.47,4.18-.88,8.01-1.25,11.5-.37,3.49-.7,6.72-.99,9.7-.29,2.98-.56,5.76-.79,8.34-.23,2.58-.45,5.05-.64,7.41-.19,2.36-.37,4.67-.53,6.92-.16,2.25-.33,4.54-.49,6.86-.16,2.32-.33,4.74-.5,7.25-.17,2.51-.36,5.2-.56,8.09l.18.03Z"/>
        <path class="st7" d="M1687.12,908.88c0-1.62-.26-3.02-.79-4.21-.53-1.19-1.22-2.16-2.07-2.92-.85-.76-1.82-1.32-2.9-1.69-1.08-.37-2.15-.55-3.23-.55-1.44,0-2.66.15-3.66.46-1,.31-1.8.73-2.42,1.26-.62.53-1.07,1.16-1.34,1.89-.27.73-.41,1.51-.41,2.35,0,.98.18,1.97.53,2.96.36.99.88,1.96,1.57,2.9l-.12.34c-1.16.57-2.33.86-3.51.86-.69,0-1.34-.11-1.94-.32-.6-.22-1.12-.53-1.55-.94-.44-.41-.78-.91-1.04-1.5-.25-.59-.38-1.26-.38-2,0-1.21.29-2.34.87-3.41.58-1.06,1.35-2.04,2.3-2.92.95-.88,2.06-1.67,3.32-2.36,1.26-.7,2.56-1.28,3.9-1.77,1.34-.48,2.69-.85,4.04-1.11,1.35-.26,2.61-.38,3.76-.38,2.13,0,3.96.29,5.47.86,1.51.57,2.74,1.41,3.69,2.5.95,1.1,1.64,2.42,2.07,3.98.44,1.56.66,3.32.66,5.28,0,1.35-.06,2.84-.17,4.45-.11,1.62-.24,3.31-.38,5.08-.14,1.77-.27,3.6-.38,5.48-.11,1.88-.17,3.76-.17,5.62,0,2.95.54,5.16,1.63,6.65,1.09,1.48,2.51,2.23,4.28,2.23,1.56,0,3.31-.58,5.24-1.75l.88,1.32c-1.36,1.37-2.85,2.42-4.45,3.13-1.61.72-3.29,1.07-5.06,1.07-1.32,0-2.54-.23-3.66-.68-1.12-.45-2.08-1.12-2.9-2.01s-1.44-2.01-1.89-3.36-.67-2.92-.67-4.7c0-.53.02-1.06.05-1.6.03-.53.1-1.09.2-1.69h-.18c-.87,1.76-1.88,3.5-3.03,5.2-1.15,1.71-2.41,3.23-3.78,4.58-1.37,1.34-2.83,2.43-4.39,3.25-1.55.83-3.18,1.24-4.89,1.24-1.4,0-2.68-.25-3.84-.74-1.16-.49-2.15-1.17-2.97-2.03s-1.46-1.88-1.92-3.06c-.46-1.18-.69-2.46-.69-3.85,0-1.8.33-3.44.99-4.91.66-1.47,1.57-2.79,2.74-3.96,1.17-1.17,2.57-2.17,4.19-3.02,1.63-.85,3.39-1.56,5.3-2.12,1.91-.56,3.93-.98,6.07-1.26,2.13-.28,4.31-.41,6.52-.41.14-1.29.26-2.54.35-3.75.09-1.21.14-2.54.14-3.99ZM1668.41,929.98c0,.8.09,1.56.26,2.29.17.73.45,1.37.82,1.92s.85.99,1.43,1.3c.58.32,1.27.48,2.09.48.91,0,1.86-.22,2.83-.64.98-.43,1.94-1.02,2.88-1.78.95-.76,1.85-1.66,2.71-2.72.86-1.05,1.64-2.21,2.33-3.45.69-1.25,1.27-2.56,1.72-3.95.46-1.38.76-2.8.9-4.25-1.5.04-3,.14-4.48.29-1.48.15-2.89.39-4.22.72-1.33.33-2.57.76-3.7,1.29-1.14.53-2.12,1.19-2.94,1.98-.82.79-1.47,1.72-1.94,2.79-.47,1.07-.7,2.32-.7,3.73Z"/>
        <path class="st7" d="M1710.9,941.25l-.49-.03c.16-1.94.31-4.06.46-6.36.14-2.29.27-4.62.4-6.99.12-2.36.23-4.71.32-7.03.09-2.32.17-4.49.24-6.51.07-2.02.12-3.82.15-5.42.03-1.6.05-2.86.05-3.78,0-.76-.03-1.41-.09-1.97-.06-.55-.2-1.01-.41-1.38-.21-.37-.52-.64-.93-.81-.41-.17-.96-.26-1.65-.26-.35,0-.7.02-1.07.06-.37.04-.77.1-1.22.18-.45.08-.95.19-1.51.32-.56.13-1.2.29-1.94.48l-.46-2.21c3.37-1.23,6.11-2.09,8.2-2.59,2.09-.5,3.51-.75,4.24-.75,1.34,0,2.3.39,2.88,1.18.58.79.87,1.96.87,3.52,0,.14-.02.56-.06,1.26-.04.7-.1,1.6-.17,2.72-.07,1.12-.16,2.41-.26,3.88-.1,1.47-.22,3.06-.35,4.74-.13,1.69-.28,3.45-.44,5.28-.16,1.83-.34,3.66-.52,5.48l.3.03c.98-4.01,2.08-7.75,3.31-11.22,1.23-3.47,2.61-6.48,4.15-9.04,1.53-2.56,3.22-4.57,5.06-6.03,1.84-1.46,3.86-2.2,6.05-2.2.77,0,1.49.12,2.16.37.67.25,1.25.59,1.74,1.03.49.44.87.96,1.16,1.57.28.6.43,1.26.43,1.98,0,.92-.2,1.81-.59,2.66-.4.85-1.02,1.6-1.87,2.26h-.24c-.85-.72-1.66-1.23-2.42-1.55-.76-.32-1.57-.48-2.42-.48-.91,0-1.8.17-2.65.52-.85.35-1.64.85-2.35,1.5-1.16,1.06-2.24,2.47-3.23,4.22-1,1.75-1.91,3.69-2.73,5.82-.82,2.13-1.57,4.37-2.23,6.71-.66,2.34-1.23,4.63-1.71,6.85-.48,2.22-.86,4.31-1.16,6.26-.29,1.96-.5,3.6-.62,4.93l-6.37.8Z"/>
        <path class="st7" d="M1754,898.38c.96.04,1.88.07,2.79.09.9.02,1.75.04,2.53.06.78.02,1.49.03,2.13.03.64,0,1.17,0,1.6,0,1.85,0,3.36-.11,4.54-.34.1.35.18.67.24.95.06.29.09.55.09.8,0,.9-.37,1.48-1.11,1.75-.74.27-1.81.4-3.22.4s-2.84-.08-4.5-.25c-1.66-.16-3.47-.32-5.44-.46-.22,2.19-.41,4.32-.56,6.4-.15,2.08-.27,4.04-.37,5.88-.09,1.84-.16,3.55-.2,5.13-.04,1.58-.06,2.95-.06,4.11,0,2.19.11,4.15.34,5.86.22,1.72.62,3.18,1.19,4.38.57,1.2,1.35,2.11,2.35,2.75,1,.63,2.26.95,3.78.95,1.1,0,2.32-.19,3.67-.58,1.35-.39,2.89-1.01,4.62-1.87.55.55.86,1.23.95,2.03-1.26.84-2.53,1.6-3.81,2.29-1.28.69-2.54,1.27-3.78,1.77-1.24.49-2.44.87-3.6,1.14-1.16.27-2.26.4-3.29.4-1.36,0-2.61-.26-3.73-.77-1.13-.51-2.1-1.4-2.93-2.67-.82-1.27-1.46-2.99-1.92-5.16-.46-2.17-.69-4.91-.69-8.23,0-4.16.12-8.24.35-12.25.23-4.01.54-7.9.93-11.67-.85.02-1.64.06-2.36.12-.72.06-1.38.16-1.97.31-.02-.06-.03-.14-.03-.25v-.18c0-.84.42-1.47,1.26-1.89.84-.42,1.98-.74,3.4-.97.24-2.46.51-4.8.79-7.03.28-2.23.56-4.3.84-6.22.27-1.91.54-3.65.81-5.22.26-1.57.5-2.91.7-4.04.1-.53.29-.97.56-1.32.27-.35.59-.62.96-.83.37-.2.76-.35,1.19-.43.43-.08.84-.12,1.25-.12.67,0,1.27.07,1.81.21.54.14,1.04.35,1.51.61-.85,3.89-1.57,7.91-2.15,12.05-.58,4.15-1.07,8.23-1.48,12.27Z"/>
        <path class="st7" d="M1803.16,941.52c-.26-1.96-.58-4.03-.94-6.19-.37-2.16-.76-4.34-1.17-6.54-.42-2.2-.85-4.38-1.31-6.52-.46-2.15-.91-4.2-1.37-6.14-.46-1.94-.9-3.74-1.33-5.37-.43-1.64-.82-3.05-1.19-4.24-.39-1.21-.75-2.2-1.1-2.96s-.71-1.37-1.08-1.81c-.38-.44-.79-.74-1.23-.91-.45-.16-.96-.25-1.52-.25-.65,0-1.35.07-2.09.21-.74.14-1.63.34-2.67.58l-.46-2.21c1.22-.45,2.41-.86,3.58-1.24,1.17-.38,2.25-.7,3.25-.97,1-.27,1.88-.47,2.65-.61.77-.14,1.38-.22,1.83-.22.55,0,1.05.1,1.51.29.46.19.9.53,1.33,1,.43.47.83,1.11,1.22,1.92.39.81.77,1.83,1.16,3.06.26.82.57,1.88.93,3.18.36,1.3.73,2.78,1.11,4.44.39,1.66.79,3.45,1.2,5.39.42,1.93.82,3.94,1.2,6,.39,2.07.75,4.17,1.08,6.31.34,2.14.62,4.24.87,6.31,1.02-1.49,2.04-3.04,3.06-4.64,1.03-1.6,2.01-3.21,2.96-4.85.94-1.64,1.82-3.29,2.64-4.96.81-1.67,1.52-3.32,2.13-4.96.61-1.64,1.09-3.24,1.43-4.82.35-1.58.52-3.1.52-4.57,0-1.84-.32-3.57-.96-5.19-.64-1.62-1.73-3.04-3.28-4.27l.34-.74c.37-.04.72-.07,1.07-.09.35-.02.68-.03,1.01-.03,2.72,0,4.78.64,6.16,1.93,1.38,1.29,2.07,3.08,2.07,5.37,0,1.74-.37,3.72-1.1,5.94-.73,2.22-1.7,4.55-2.9,6.99-1.2,2.44-2.56,4.92-4.08,7.45-1.52,2.53-3.08,4.97-4.66,7.32-1.59,2.35-3.13,4.56-4.63,6.62-1.5,2.06-2.83,3.83-3.99,5.33l-3.23-.34Z"/>
        <path class="st7" d="M1856.9,908.88c0-1.62-.26-3.02-.79-4.21-.53-1.19-1.22-2.16-2.07-2.92-.85-.76-1.82-1.32-2.9-1.69-1.08-.37-2.15-.55-3.23-.55-1.44,0-2.66.15-3.66.46-1,.31-1.8.73-2.42,1.26-.62.53-1.07,1.16-1.34,1.89-.27.73-.41,1.51-.41,2.35,0,.98.18,1.97.53,2.96.36.99.88,1.96,1.57,2.9l-.12.34c-1.16.57-2.33.86-3.51.86-.69,0-1.34-.11-1.94-.32-.6-.22-1.12-.53-1.55-.94-.44-.41-.78-.91-1.04-1.5-.25-.59-.38-1.26-.38-2,0-1.21.29-2.34.87-3.41.58-1.06,1.35-2.04,2.3-2.92.95-.88,2.06-1.67,3.32-2.36,1.26-.7,2.56-1.28,3.9-1.77,1.34-.48,2.69-.85,4.04-1.11,1.35-.26,2.61-.38,3.76-.38,2.13,0,3.96.29,5.47.86,1.51.57,2.74,1.41,3.69,2.5.95,1.1,1.64,2.42,2.07,3.98.44,1.56.66,3.32.66,5.28,0,1.35-.06,2.84-.17,4.45-.11,1.62-.24,3.31-.38,5.08-.14,1.77-.27,3.6-.38,5.48-.11,1.88-.17,3.76-.17,5.62,0,2.95.54,5.16,1.63,6.65,1.09,1.48,2.51,2.23,4.28,2.23,1.56,0,3.31-.58,5.24-1.75l.88,1.32c-1.36,1.37-2.85,2.42-4.45,3.13-1.61.72-3.29,1.07-5.06,1.07-1.32,0-2.54-.23-3.66-.68-1.12-.45-2.08-1.12-2.9-2.01s-1.44-2.01-1.89-3.36-.67-2.92-.67-4.7c0-.53.02-1.06.05-1.6.03-.53.1-1.09.2-1.69h-.18c-.87,1.76-1.88,3.5-3.03,5.2-1.15,1.71-2.41,3.23-3.78,4.58-1.37,1.34-2.83,2.43-4.39,3.25-1.55.83-3.18,1.24-4.89,1.24-1.4,0-2.68-.25-3.84-.74-1.16-.49-2.15-1.17-2.97-2.03s-1.46-1.88-1.92-3.06c-.46-1.18-.69-2.46-.69-3.85,0-1.8.33-3.44.99-4.91.66-1.47,1.57-2.79,2.74-3.96,1.17-1.17,2.57-2.17,4.19-3.02,1.63-.85,3.39-1.56,5.3-2.12,1.91-.56,3.93-.98,6.07-1.26,2.13-.28,4.31-.41,6.52-.41.14-1.29.26-2.54.35-3.75.09-1.21.14-2.54.14-3.99ZM1838.18,929.98c0,.8.09,1.56.26,2.29.17.73.45,1.37.82,1.92s.85.99,1.43,1.3c.58.32,1.27.48,2.09.48.91,0,1.86-.22,2.83-.64.98-.43,1.94-1.02,2.88-1.78.95-.76,1.85-1.66,2.71-2.72.86-1.05,1.64-2.21,2.33-3.45.69-1.25,1.27-2.56,1.72-3.95.46-1.38.76-2.8.9-4.25-1.5.04-3,.14-4.48.29-1.48.15-2.89.39-4.22.72-1.33.33-2.57.76-3.7,1.29-1.14.53-2.12,1.19-2.94,1.98-.82.79-1.47,1.72-1.94,2.79-.47,1.07-.7,2.32-.7,3.73Z"/>
        <path class="st7" d="M1881.8,905.14c0-.84-.06-1.55-.18-2.12-.12-.57-.31-1.03-.56-1.37-.25-.34-.57-.58-.96-.72-.39-.14-.84-.21-1.37-.21-.73,0-1.61.1-2.62.31-1.02.2-2.17.48-3.47.83l-.46-2.21c1.44-.51,2.83-.98,4.16-1.4,1.33-.42,2.56-.78,3.67-1.09,1.12-.31,2.1-.54,2.96-.71.85-.16,1.52-.25,2.01-.25,1.18,0,2.1.35,2.76,1.06.66.71.99,1.92.99,3.64,0,.2-.02.68-.06,1.43-.04.75-.1,1.69-.17,2.84-.07,1.15-.16,2.46-.26,3.95-.1,1.48-.22,3.07-.35,4.74-.13,1.68-.28,3.41-.44,5.2-.16,1.79-.34,3.58-.52,5.36l.18.03c1.54-5.28,3.2-9.74,4.97-13.37,1.77-3.63,3.57-6.58,5.4-8.84,1.83-2.26,3.65-3.89,5.46-4.9,1.81-1,3.54-1.5,5.18-1.5,1.14,0,2.23.21,3.29.64,1.06.43,2,1.12,2.82,2.06.82.94,1.48,2.15,1.97,3.64.49,1.48.73,3.28.73,5.39,0,.61-.04,1.44-.11,2.47-.07,1.03-.16,2.19-.26,3.45-.1,1.27-.22,2.62-.35,4.04-.13,1.42-.25,2.82-.35,4.19-.1,1.37-.19,2.68-.26,3.91-.07,1.24-.11,2.32-.11,3.24,0,1.6.07,2.9.2,3.9.13,1,.35,1.8.66,2.38s.71.98,1.22,1.2c.51.21,1.13.32,1.86.32,1.06,0,2.15-.15,3.29-.45,1.14-.3,2.29-.71,3.44-1.24l.58,1.6c-.73.59-1.66,1.2-2.77,1.81-1.12.61-2.29,1.18-3.52,1.69s-2.45.93-3.67,1.24c-1.22.32-2.3.48-3.23.48-1.1,0-1.96-.3-2.59-.89-.63-.59-1.1-1.4-1.42-2.43-.32-1.02-.52-2.22-.61-3.59-.09-1.37-.14-2.84-.14-4.42,0-1.92.07-3.9.2-5.94.13-2.04.28-3.98.44-5.82.16-1.84.31-3.52.44-5.02s.2-2.71.2-3.61c0-2.39-.45-4.16-1.34-5.3-.89-1.14-2.08-1.7-3.57-1.7-1.18,0-2.42.5-3.72,1.5-1.3,1-2.6,2.38-3.89,4.13-1.29,1.75-2.53,3.82-3.72,6.2-1.19,2.38-2.26,4.96-3.22,7.74-.96,2.77-1.75,5.68-2.38,8.7-.63,3.03-1.03,6.06-1.19,9.09l-6.37.8-.49-.03c.16-1.94.31-4.06.46-6.36.14-2.29.27-4.62.4-6.99.12-2.36.23-4.71.32-7.03.09-2.32.17-4.49.24-6.51.07-2.02.12-3.82.15-5.42.03-1.6.05-2.86.05-3.78Z"/>
        <path class="st7" d="M1951.14,922.79c0-2.07.21-4.17.64-6.29.43-2.13,1.06-4.19,1.89-6.19.83-2,1.86-3.87,3.09-5.62,1.23-1.75,2.65-3.28,4.25-4.59,1.61-1.31,3.39-2.34,5.36-3.1,1.97-.76,4.11-1.14,6.43-1.14,2.6,0,4.9.55,6.9,1.66,2,1.11,3.68,2.56,5.04,4.38,1.36,1.81,2.39,3.87,3.09,6.19.7,2.31,1.05,4.68,1.05,7.09,0,2.07-.21,4.17-.64,6.29-.43,2.13-1.06,4.19-1.91,6.19-.84,2-1.88,3.87-3.11,5.62-1.23,1.75-2.65,3.28-4.25,4.59-1.61,1.31-3.39,2.34-5.36,3.1-1.97.76-4.11,1.14-6.43,1.14-2.6,0-4.9-.55-6.9-1.66-2-1.11-3.68-2.56-5.03-4.38-1.35-1.81-2.38-3.87-3.08-6.19-.7-2.31-1.05-4.68-1.05-7.09ZM1958.43,919.88c0,1.39.11,2.8.32,4.24.21,1.43.54,2.81.99,4.15.45,1.33,1,2.57,1.66,3.73.66,1.16,1.44,2.16,2.35,3.02.9.86,1.92,1.54,3.05,2.03,1.13.49,2.37.74,3.73.74,1.48,0,2.79-.32,3.92-.97,1.13-.64,2.1-1.5,2.93-2.56.82-1.06,1.5-2.28,2.04-3.65.54-1.37.97-2.79,1.3-4.25.32-1.46.55-2.91.69-4.34.13-1.43.2-2.75.2-3.96,0-1.41-.11-2.83-.32-4.25-.21-1.42-.54-2.79-.99-4.11-.45-1.32-1-2.56-1.66-3.72-.66-1.16-1.44-2.16-2.35-3.01-.9-.85-1.92-1.52-3.05-2.01-1.13-.49-2.37-.74-3.73-.74-1.48,0-2.79.32-3.92.95-1.13.63-2.1,1.48-2.93,2.55-.82,1.06-1.5,2.28-2.04,3.65-.54,1.37-.97,2.78-1.3,4.24-.33,1.45-.55,2.9-.69,4.34-.13,1.44-.2,2.76-.2,3.95Z"/>
        <path class="st7" d="M2001.5,905.14c0-.84-.06-1.55-.18-2.12-.12-.57-.31-1.03-.56-1.37-.25-.34-.57-.58-.96-.72-.39-.14-.84-.21-1.37-.21-.73,0-1.61.1-2.62.31-1.02.2-2.17.48-3.47.83l-.46-2.21c1.44-.51,2.83-.98,4.16-1.4,1.33-.42,2.56-.78,3.67-1.09,1.12-.31,2.1-.54,2.96-.71.85-.16,1.52-.25,2.01-.25,1.18,0,2.1.35,2.76,1.06.66.71.99,1.92.99,3.64,0,.2-.02.68-.06,1.43-.04.75-.1,1.69-.17,2.84-.07,1.15-.16,2.46-.26,3.95-.1,1.48-.22,3.07-.35,4.74-.13,1.68-.28,3.41-.44,5.2-.16,1.79-.34,3.58-.52,5.36l.18.03c1.54-5.28,3.2-9.74,4.97-13.37,1.77-3.63,3.57-6.58,5.4-8.84,1.83-2.26,3.65-3.89,5.46-4.9,1.81-1,3.54-1.5,5.18-1.5,1.14,0,2.23.21,3.29.64,1.06.43,2,1.12,2.82,2.06.82.94,1.48,2.15,1.97,3.64.49,1.48.73,3.28.73,5.39,0,.61-.04,1.44-.11,2.47-.07,1.03-.16,2.19-.26,3.45-.1,1.27-.22,2.62-.35,4.04-.13,1.42-.25,2.82-.35,4.19-.1,1.37-.19,2.68-.26,3.91-.07,1.24-.11,2.32-.11,3.24,0,1.6.07,2.9.2,3.9.13,1,.35,1.8.66,2.38s.71.98,1.22,1.2c.51.21,1.13.32,1.86.32,1.06,0,2.15-.15,3.29-.45,1.14-.3,2.29-.71,3.44-1.24l.58,1.6c-.73.59-1.66,1.2-2.77,1.81-1.12.61-2.29,1.18-3.52,1.69s-2.45.93-3.67,1.24c-1.22.32-2.3.48-3.23.48-1.1,0-1.96-.3-2.59-.89-.63-.59-1.1-1.4-1.42-2.43-.32-1.02-.52-2.22-.61-3.59-.09-1.37-.14-2.84-.14-4.42,0-1.92.07-3.9.2-5.94.13-2.04.28-3.98.44-5.82.16-1.84.31-3.52.44-5.02s.2-2.71.2-3.61c0-2.39-.45-4.16-1.34-5.3-.89-1.14-2.08-1.7-3.57-1.7-1.18,0-2.42.5-3.72,1.5-1.3,1-2.6,2.38-3.89,4.13-1.29,1.75-2.53,3.82-3.72,6.2-1.19,2.38-2.26,4.96-3.22,7.74-.96,2.77-1.75,5.68-2.38,8.7-.63,3.03-1.03,6.06-1.19,9.09l-6.37.8-.49-.03c.16-1.94.31-4.06.46-6.36.14-2.29.27-4.62.4-6.99.12-2.36.23-4.71.32-7.03.09-2.32.17-4.49.24-6.51.07-2.02.12-3.82.15-5.42.03-1.6.05-2.86.05-3.78Z"/>
        <path class="st7" d="M2065.05,874.06c-.85,3.89-1.57,7.91-2.15,12.05-.58,4.15-1.07,8.23-1.48,12.27.96.04,1.88.07,2.79.09.9.02,1.75.04,2.53.06.78.02,1.49.03,2.13.03s1.17,0,1.6,0c1.85,0,3.36-.11,4.54-.34.1.35.18.67.24.95.06.29.09.55.09.8,0,.9-.37,1.48-1.11,1.75-.74.27-1.81.4-3.22.4s-2.84-.08-4.5-.25c-1.66-.16-3.47-.32-5.44-.46-.22,2.19-.41,4.32-.56,6.4-.15,2.08-.27,4.04-.37,5.88-.09,1.84-.16,3.55-.2,5.13-.04,1.58-.06,2.95-.06,4.11,0,2.19.11,4.15.34,5.86.22,1.72.62,3.18,1.19,4.38.57,1.2,1.35,2.11,2.35,2.75,1,.63,2.26.95,3.78.95,1.1,0,2.32-.19,3.67-.58,1.35-.39,2.89-1.01,4.62-1.87.55.55.86,1.23.94,2.03-1.26.84-2.53,1.6-3.81,2.29-1.28.69-2.54,1.27-3.78,1.77-1.24.49-2.44.87-3.6,1.14-1.16.27-2.26.4-3.29.4-1.36,0-2.61-.25-3.73-.75-1.13-.5-2.1-1.39-2.93-2.67-.82-1.28-1.46-3-1.92-5.17-.46-2.17-.69-4.91-.69-8.23,0-1.86.03-3.78.09-5.76.06-1.98.14-3.98.24-6,.1-2.03.23-4.05.4-6.08s.35-4.02.55-5.99c-1.61.02-3.09.09-4.47.2-1.37.11-2.54.29-3.52.54-.06-.12-.09-.27-.09-.43,0-.43.21-.83.62-1.21.42-.38,1-.72,1.74-1.03.74-.31,1.63-.56,2.67-.77,1.04-.2,2.17-.35,3.41-.43.47-4.28.96-8.32,1.49-12.13.53-3.81,1.06-7.21,1.59-10.19.1-.53.29-.97.56-1.32.27-.35.59-.62.96-.83.37-.2.76-.35,1.19-.43.43-.08.84-.12,1.25-.12.67,0,1.28.07,1.81.21.54.14,1.04.35,1.51.61Z"/>
        <path class="st7" d="M2084.07,929.36c.14,1.56.55,2.9,1.23,4.02.68,1.13,1.52,2.05,2.51,2.76,1,.72,2.1,1.25,3.31,1.6,1.21.35,2.41.52,3.61.52,1.12,0,2.19-.15,3.23-.46,1.04-.31,1.95-.75,2.74-1.32.79-.57,1.43-1.28,1.91-2.12.48-.84.72-1.78.72-2.82s-.25-2.04-.76-2.86c-.51-.82-1.19-1.57-2.04-2.24s-1.84-1.3-2.97-1.87c-1.13-.57-2.3-1.16-3.52-1.75-1.08-.51-2.16-1.03-3.25-1.55-1.09-.52-2.14-1.09-3.15-1.7-1.02-.61-1.97-1.28-2.85-2-.88-.72-1.66-1.51-2.32-2.38-.66-.87-1.18-1.84-1.55-2.92-.38-1.07-.56-2.27-.56-3.58,0-1.41.24-2.71.73-3.9.49-1.19,1.15-2.26,2-3.21.84-.95,1.82-1.79,2.93-2.5,1.11-.72,2.29-1.32,3.55-1.8,1.26-.48,2.55-.84,3.89-1.07,1.33-.24,2.63-.35,3.89-.35,1.63,0,3.16.18,4.62.54,1.45.36,2.72.88,3.81,1.57,1.09.69,1.95,1.52,2.59,2.5.64.98.96,2.09.96,3.32,0,.47-.08.98-.24,1.54-.16.55-.44,1.07-.82,1.55-.39.48-.89.89-1.52,1.21-.63.33-1.4.5-2.32.52-.85,0-1.75-.13-2.68-.4l-.09-.31c.28-.65.49-1.26.61-1.81.12-.55.18-1.06.18-1.54-.02-.94-.26-1.73-.72-2.38-.46-.64-1.03-1.17-1.72-1.58-.69-.41-1.46-.71-2.3-.89-.84-.18-1.67-.28-2.48-.28-1.44,0-2.73.19-3.87.58-1.14.39-2.1.91-2.88,1.55-.78.64-1.38,1.38-1.8,2.2-.42.82-.62,1.67-.62,2.55,0,1.13.29,2.13.88,3.02.59.89,1.37,1.71,2.35,2.46.98.75,2.1,1.45,3.37,2.1s2.6,1.31,3.98,1.96c1.54.74,3.08,1.5,4.6,2.29,1.52.79,2.89,1.68,4.08,2.69,1.2,1,2.17,2.15,2.91,3.45.74,1.3,1.11,2.83,1.11,4.59,0,2.11-.46,3.98-1.39,5.62-.92,1.64-2.16,3.02-3.7,4.15-1.54,1.13-3.32,1.98-5.32,2.56-2,.58-4.08.88-6.23.88-1.08,0-2.19-.08-3.34-.25-1.15-.16-2.26-.41-3.34-.74-1.08-.33-2.1-.73-3.06-1.21-.97-.48-1.81-1.03-2.53-1.66-.72-.62-1.29-1.32-1.71-2.09-.42-.77-.62-1.61-.62-2.53,0-.8.17-1.47.5-2.03.34-.55.78-1,1.33-1.35.55-.35,1.16-.61,1.84-.78.68-.17,1.38-.27,2.09-.29l.24.21Z"/>
        <path class="st7" d="M2110.89,899.49c2.28-.7,4.22-1.26,5.82-1.69,1.61-.43,2.95-.77,4.04-1.01,1.09-.25,1.94-.41,2.56-.51.62-.09,1.08-.14,1.39-.14.51,0,.99.08,1.43.23.45.15.84.41,1.17.78s.59.86.78,1.49c.18.62.27,1.4.27,2.32,0,.31-.02.91-.05,1.81-.03.9-.09,2.14-.17,3.73-.08,1.59-.19,3.53-.32,5.83-.13,2.3-.3,5.01-.5,8.12l.37.03c1.58-3.97,3.3-7.49,5.14-10.55,1.84-3.06,3.71-5.63,5.61-7.72,1.9-2.09,3.8-3.67,5.68-4.74,1.89-1.07,3.69-1.61,5.4-1.61,1.38,0,2.6.26,3.66.78,1.06.52,1.98,1.22,2.76,2.09.78.87,1.44,1.87,1.97,3.01.53,1.14.96,2.32,1.28,3.56.33,1.24.56,2.49.7,3.76.14,1.27.21,2.46.21,3.56,0,3.01-.3,5.82-.91,8.44-.61,2.62-1.44,5.02-2.5,7.2-1.06,2.18-2.31,4.13-3.75,5.85-1.44,1.72-3,3.17-4.68,4.34-1.68,1.18-3.43,2.08-5.27,2.7-1.84.62-3.68.94-5.53.94-1.97,0-3.89-.36-5.76-1.07-1.87-.72-3.63-1.9-5.27-3.56-.22,5.14-.45,10.44-.67,15.92-.22,5.48-.35,11.19-.37,17.15l-6.4.74-.64-.03c.31-3.83.59-7.84.85-12.05.26-4.21.51-8.43.73-12.67.22-4.24.43-8.41.61-12.51.18-4.1.34-7.96.46-11.56.12-3.6.22-6.87.29-9.81.07-2.94.11-5.37.11-7.29,0-.78-.04-1.46-.12-2.04s-.24-1.07-.47-1.46c-.23-.39-.57-.68-1.02-.88-.45-.19-1.04-.29-1.77-.29s-1.67.08-2.74.25c-1.08.16-2.38.44-3.9.83l-.46-2.27ZM2126.68,934.12c1.73,1.47,3.45,2.56,5.17,3.25,1.72.7,3.44,1.04,5.17,1.04,2.28,0,4.37-.49,6.29-1.46,1.92-.97,3.58-2.42,4.97-4.34,1.39-1.92,2.48-4.3,3.26-7.14.78-2.83,1.17-6.13,1.17-9.87,0-1.39-.11-2.82-.32-4.3-.21-1.47-.55-2.81-1.01-4.01-.46-1.2-1.06-2.18-1.8-2.95-.74-.77-1.64-1.15-2.7-1.15-1.24,0-2.47.32-3.69.97-1.22.64-2.4,1.52-3.55,2.61-1.15,1.1-2.25,2.38-3.31,3.85-1.06,1.47-2.05,3.03-2.99,4.68-.93,1.65-1.79,3.35-2.56,5.1-.77,1.75-1.45,3.45-2.03,5.11-.58,1.66-1.05,3.22-1.4,4.7-.36,1.47-.58,2.77-.69,3.9Z"/>
        <path class="st7" d="M2191.91,908.88c0-1.62-.26-3.02-.79-4.21-.53-1.19-1.22-2.16-2.07-2.92-.85-.76-1.82-1.32-2.9-1.69-1.08-.37-2.15-.55-3.23-.55-1.44,0-2.66.15-3.66.46-1,.31-1.8.73-2.42,1.26-.62.53-1.07,1.16-1.34,1.89-.27.73-.41,1.51-.41,2.35,0,.98.18,1.97.53,2.96.36.99.88,1.96,1.57,2.9l-.12.34c-1.16.57-2.33.86-3.51.86-.69,0-1.34-.11-1.94-.32-.6-.22-1.12-.53-1.55-.94-.44-.41-.78-.91-1.04-1.5-.25-.59-.38-1.26-.38-2,0-1.21.29-2.34.87-3.41.58-1.06,1.35-2.04,2.3-2.92.95-.88,2.06-1.67,3.32-2.36,1.26-.7,2.56-1.28,3.9-1.77,1.34-.48,2.69-.85,4.04-1.11,1.35-.26,2.61-.38,3.76-.38,2.13,0,3.96.29,5.47.86,1.51.57,2.74,1.41,3.69,2.5.95,1.1,1.64,2.42,2.07,3.98.44,1.56.66,3.32.66,5.28,0,1.35-.06,2.84-.17,4.45-.11,1.62-.24,3.31-.38,5.08-.14,1.77-.27,3.6-.38,5.48-.11,1.88-.17,3.76-.17,5.62,0,2.95.54,5.16,1.63,6.65,1.09,1.48,2.51,2.23,4.28,2.23,1.56,0,3.31-.58,5.24-1.75l.88,1.32c-1.36,1.37-2.85,2.42-4.45,3.13s-3.29,1.07-5.06,1.07c-1.32,0-2.54-.23-3.66-.68-1.12-.45-2.08-1.12-2.9-2.01s-1.44-2.01-1.89-3.36c-.45-1.35-.67-2.92-.67-4.7,0-.53.02-1.06.05-1.6.03-.53.1-1.09.2-1.69h-.18c-.87,1.76-1.88,3.5-3.03,5.2-1.15,1.71-2.41,3.23-3.78,4.58-1.37,1.34-2.83,2.43-4.39,3.25-1.55.83-3.18,1.24-4.89,1.24-1.4,0-2.68-.25-3.84-.74s-2.15-1.17-2.97-2.03-1.46-1.88-1.92-3.06c-.46-1.18-.69-2.46-.69-3.85,0-1.8.33-3.44.99-4.91.66-1.47,1.57-2.79,2.74-3.96,1.17-1.17,2.57-2.17,4.19-3.02,1.63-.85,3.39-1.56,5.3-2.12,1.91-.56,3.93-.98,6.07-1.26,2.13-.28,4.31-.41,6.52-.41.14-1.29.26-2.54.35-3.75.09-1.21.14-2.54.14-3.99ZM2173.19,929.98c0,.8.09,1.56.26,2.29.17.73.45,1.37.82,1.92s.85.99,1.43,1.3c.58.32,1.27.48,2.09.48.91,0,1.86-.22,2.83-.64.98-.43,1.94-1.02,2.88-1.78.95-.76,1.85-1.66,2.71-2.72.86-1.05,1.64-2.21,2.33-3.45.69-1.25,1.27-2.56,1.72-3.95.46-1.38.76-2.8.9-4.25-1.5.04-3,.14-4.48.29-1.48.15-2.89.39-4.22.72-1.33.33-2.57.76-3.7,1.29-1.14.53-2.12,1.19-2.94,1.98-.82.79-1.47,1.72-1.94,2.79-.47,1.07-.7,2.32-.7,3.73Z"/>
        <path class="st7" d="M2216.81,905.14c0-.84-.06-1.55-.18-2.12-.12-.57-.31-1.03-.56-1.37-.25-.34-.57-.58-.96-.72-.39-.14-.84-.21-1.37-.21-.73,0-1.61.1-2.62.31-1.02.2-2.17.48-3.47.83l-.46-2.21c1.44-.51,2.83-.98,4.16-1.4,1.33-.42,2.56-.78,3.67-1.09,1.12-.31,2.1-.54,2.96-.71.85-.16,1.52-.25,2.01-.25,1.18,0,2.1.35,2.76,1.06.66.71.99,1.92.99,3.64,0,.2-.02.68-.06,1.43-.04.75-.1,1.69-.17,2.84-.07,1.15-.16,2.46-.26,3.95-.1,1.48-.22,3.07-.35,4.74-.13,1.68-.28,3.41-.44,5.2-.16,1.79-.34,3.58-.52,5.36l.18.03c1.54-5.28,3.2-9.74,4.97-13.37,1.77-3.63,3.57-6.58,5.4-8.84,1.83-2.26,3.65-3.89,5.46-4.9,1.81-1,3.54-1.5,5.18-1.5,1.14,0,2.23.21,3.29.64,1.06.43,2,1.12,2.82,2.06.82.94,1.48,2.15,1.97,3.64.49,1.48.73,3.28.73,5.39,0,.61-.04,1.44-.11,2.47-.07,1.03-.16,2.19-.26,3.45-.1,1.27-.22,2.62-.35,4.04-.13,1.42-.25,2.82-.35,4.19-.1,1.37-.19,2.68-.26,3.91-.07,1.24-.11,2.32-.11,3.24,0,1.6.07,2.9.2,3.9.13,1,.35,1.8.66,2.38s.71.98,1.22,1.2c.51.21,1.13.32,1.86.32,1.06,0,2.15-.15,3.29-.45,1.14-.3,2.29-.71,3.44-1.24l.58,1.6c-.73.59-1.66,1.2-2.77,1.81-1.12.61-2.29,1.18-3.52,1.69s-2.45.93-3.67,1.24c-1.22.32-2.3.48-3.23.48-1.1,0-1.96-.3-2.59-.89-.63-.59-1.1-1.4-1.42-2.43-.32-1.02-.52-2.22-.61-3.59-.09-1.37-.14-2.84-.14-4.42,0-1.92.07-3.9.2-5.94.13-2.04.28-3.98.44-5.82.16-1.84.31-3.52.44-5.02.13-1.5.2-2.71.2-3.61,0-2.39-.45-4.16-1.34-5.3-.89-1.14-2.08-1.7-3.57-1.7-1.18,0-2.42.5-3.72,1.5-1.3,1-2.6,2.38-3.89,4.13-1.29,1.75-2.53,3.82-3.72,6.2-1.19,2.38-2.26,4.96-3.22,7.74-.96,2.77-1.75,5.68-2.38,8.7-.63,3.03-1.03,6.06-1.19,9.09l-6.37.8-.49-.03c.16-1.94.31-4.06.46-6.36.14-2.29.27-4.62.4-6.99.12-2.36.23-4.71.32-7.03.09-2.32.17-4.49.24-6.51.07-2.02.12-3.82.15-5.42.03-1.6.05-2.86.05-3.78Z"/>
        <path class="st7" d="M2270.36,905.14c0-.84-.06-1.55-.18-2.12-.12-.57-.31-1.03-.56-1.37-.25-.34-.57-.58-.96-.72-.39-.14-.84-.21-1.37-.21-.73,0-1.61.1-2.62.31-1.02.2-2.17.48-3.47.83l-.46-2.21c1.44-.51,2.83-.98,4.16-1.4,1.33-.42,2.56-.78,3.67-1.09,1.12-.31,2.1-.54,2.96-.71.85-.16,1.52-.25,2.01-.25,1.18,0,2.1.35,2.76,1.06.66.71.99,1.92.99,3.64,0,.2-.02.68-.06,1.43-.04.75-.1,1.69-.17,2.84-.07,1.15-.16,2.46-.26,3.95-.1,1.48-.22,3.07-.35,4.74-.13,1.68-.28,3.41-.44,5.2-.16,1.79-.34,3.58-.52,5.36l.18.03c1.54-5.28,3.2-9.74,4.97-13.37,1.77-3.63,3.57-6.58,5.4-8.84,1.83-2.26,3.65-3.89,5.46-4.9,1.81-1,3.54-1.5,5.18-1.5,1.14,0,2.23.21,3.29.64,1.06.43,2,1.12,2.82,2.06.82.94,1.48,2.15,1.97,3.64.49,1.48.73,3.28.73,5.39,0,.61-.04,1.44-.11,2.47-.07,1.03-.16,2.19-.26,3.45-.1,1.27-.22,2.62-.35,4.04-.13,1.42-.25,2.82-.35,4.19-.1,1.37-.19,2.68-.26,3.91-.07,1.24-.11,2.32-.11,3.24,0,1.6.07,2.9.2,3.9.13,1,.35,1.8.66,2.38s.71.98,1.22,1.2c.51.21,1.13.32,1.86.32,1.06,0,2.15-.15,3.29-.45,1.14-.3,2.29-.71,3.44-1.24l.58,1.6c-.73.59-1.66,1.2-2.77,1.81-1.12.61-2.29,1.18-3.52,1.69-1.23.51-2.45.93-3.67,1.24-1.22.32-2.3.48-3.23.48-1.1,0-1.96-.3-2.59-.89-.63-.59-1.1-1.4-1.42-2.43-.32-1.02-.52-2.22-.61-3.59-.09-1.37-.14-2.84-.14-4.42,0-1.92.07-3.9.2-5.94.13-2.04.28-3.98.44-5.82.16-1.84.31-3.52.44-5.02s.2-2.71.2-3.61c0-2.39-.45-4.16-1.34-5.3-.89-1.14-2.08-1.7-3.57-1.7-1.18,0-2.42.5-3.72,1.5-1.3,1-2.6,2.38-3.89,4.13-1.29,1.75-2.53,3.82-3.72,6.2-1.19,2.38-2.26,4.96-3.22,7.74-.96,2.77-1.75,5.68-2.38,8.7-.63,3.03-1.03,6.06-1.19,9.09l-6.37.8-.49-.03c.16-1.94.31-4.06.46-6.36.14-2.29.27-4.62.4-6.99.12-2.36.23-4.71.32-7.03.09-2.32.17-4.49.24-6.51.07-2.02.12-3.82.15-5.42.03-1.6.05-2.86.05-3.78Z"/>
        <path class="st7" d="M2330.2,897.25c-.35,2.33-.64,4.67-.88,7.02-.24,2.34-.44,4.61-.59,6.8-.15,2.19-.26,4.26-.34,6.22-.07,1.96-.11,3.72-.11,5.3,0,2.13.03,3.96.09,5.48.06,1.53.16,2.81.31,3.85.14,1.04.32,1.88.53,2.5.21.62.48,1.11.79,1.44.31.34.68.56,1.1.66.42.1.89.15,1.42.15.98,0,2.03-.15,3.15-.45,1.13-.3,2.27-.71,3.43-1.24l.58,1.6c-.73.59-1.65,1.2-2.76,1.81-1.11.61-2.27,1.18-3.49,1.69-1.22.51-2.41.93-3.58,1.24-1.17.32-2.18.48-3.03.48-.57,0-1.09-.05-1.55-.14-.47-.09-.89-.32-1.27-.69-.38-.37-.71-.91-1.01-1.63-.29-.72-.54-1.69-.73-2.92-.19-1.23-.34-2.76-.44-4.61-.1-1.84-.15-4.07-.15-6.69,0-1.54.02-3.27.05-5.2.03-1.93.08-4.01.14-6.23.06-2.22.14-4.56.24-7.03.1-2.47.23-5.01.4-7.63.04-.57.19-1.04.46-1.4.26-.36.59-.63.98-.83.39-.19.8-.33,1.23-.4.44-.07.84-.11,1.2-.11,1.36,0,2.64.32,3.84.95ZM2327.54,883.37c-.71,0-1.34-.15-1.89-.45-.55-.3-1.02-.69-1.4-1.17-.39-.48-.68-1.03-.88-1.66-.2-.62-.3-1.26-.3-1.92,0-.92.15-1.73.46-2.44.31-.71.7-1.3,1.19-1.78.49-.48,1.03-.84,1.62-1.07.59-.24,1.17-.35,1.74-.35.69,0,1.31.13,1.86.38.55.26,1.02.61,1.42,1.06.4.45.7.97.91,1.55.21.58.32,1.21.32,1.89,0,.72-.12,1.43-.37,2.13-.24.71-.58,1.35-1.02,1.92-.44.57-.97,1.03-1.59,1.38-.62.35-1.31.52-2.06.52Z"/>
        <path class="st7" d="M2347.91,905.14c0-.84-.06-1.55-.18-2.12-.12-.57-.31-1.03-.56-1.37-.25-.34-.57-.58-.96-.72-.39-.14-.84-.21-1.37-.21-.73,0-1.61.1-2.62.31-1.02.2-2.17.48-3.47.83l-.46-2.21c1.44-.51,2.83-.98,4.16-1.4,1.33-.42,2.56-.78,3.67-1.09,1.12-.31,2.1-.54,2.96-.71.85-.16,1.52-.25,2.01-.25,1.18,0,2.1.35,2.76,1.06.66.71.99,1.92.99,3.64,0,.2-.02.68-.06,1.43-.04.75-.1,1.69-.17,2.84-.07,1.15-.16,2.46-.26,3.95-.1,1.48-.22,3.07-.35,4.74-.13,1.68-.28,3.41-.44,5.2-.16,1.79-.34,3.58-.52,5.36l.18.03c1.54-5.28,3.2-9.74,4.97-13.37,1.77-3.63,3.57-6.58,5.4-8.84,1.83-2.26,3.65-3.89,5.46-4.9,1.81-1,3.54-1.5,5.18-1.5,1.14,0,2.23.21,3.29.64,1.06.43,2,1.12,2.82,2.06.82.94,1.48,2.15,1.97,3.64.49,1.48.73,3.28.73,5.39,0,.61-.04,1.44-.11,2.47-.07,1.03-.16,2.19-.26,3.45-.1,1.27-.22,2.62-.35,4.04-.13,1.42-.25,2.82-.35,4.19-.1,1.37-.19,2.68-.26,3.91-.07,1.24-.11,2.32-.11,3.24,0,1.6.07,2.9.2,3.9.13,1,.35,1.8.66,2.38s.71.98,1.22,1.2c.51.21,1.13.32,1.86.32,1.06,0,2.15-.15,3.29-.45,1.14-.3,2.29-.71,3.44-1.24l.58,1.6c-.73.59-1.66,1.2-2.77,1.81-1.12.61-2.29,1.18-3.52,1.69-1.23.51-2.45.93-3.67,1.24-1.22.32-2.3.48-3.23.48-1.1,0-1.96-.3-2.59-.89-.63-.59-1.1-1.4-1.42-2.43-.32-1.02-.52-2.22-.61-3.59-.09-1.37-.14-2.84-.14-4.42,0-1.92.07-3.9.2-5.94.13-2.04.28-3.98.44-5.82.16-1.84.31-3.52.44-5.02s.2-2.71.2-3.61c0-2.39-.45-4.16-1.34-5.3-.89-1.14-2.08-1.7-3.57-1.7-1.18,0-2.42.5-3.72,1.5-1.3,1-2.6,2.38-3.89,4.13-1.29,1.75-2.53,3.82-3.72,6.2-1.19,2.38-2.26,4.96-3.22,7.74-.96,2.77-1.75,5.68-2.38,8.7-.63,3.03-1.03,6.06-1.19,9.09l-6.37.8-.49-.03c.16-1.94.31-4.06.46-6.36.14-2.29.27-4.62.4-6.99.12-2.36.23-4.71.32-7.03.09-2.32.17-4.49.24-6.51.07-2.02.12-3.82.15-5.42.03-1.6.05-2.86.05-3.78Z"/>
        <path class="st7" d="M2428.56,902.16c1.04,1.49,1.76,3,2.16,4.51.41,1.52.61,3.05.61,4.61s-.22,3.2-.66,4.74c-.44,1.55-1.06,3.01-1.86,4.39-.8,1.38-1.77,2.65-2.9,3.81-1.13,1.16-2.38,2.16-3.76,3.01-1.38.85-2.87,1.51-4.45,1.98-1.58.47-3.24.71-4.97.71-.45,0-.89-.02-1.33-.06-.44-.04-.89-.09-1.36-.15-.71.14-1.36.36-1.95.64-.59.29-1.11.62-1.55,1.01-.45.39-.79.8-1.04,1.24-.24.44-.37.89-.37,1.34,0,.9.35,1.67,1.05,2.3.7.63,1.64,1.19,2.82,1.66,1.18.47,2.54.89,4.1,1.24,1.55.36,3.17.72,4.86,1.09,1.52.33,3.03.67,4.51,1.01,1.48.35,2.9.75,4.24,1.2,1.34.45,2.58.98,3.72,1.58,1.14.6,2.12,1.31,2.96,2.12.83.81,1.48,1.75,1.95,2.82.47,1.07.7,2.32.7,3.73,0,1.78-.32,3.49-.96,5.14-.64,1.65-1.54,3.19-2.7,4.62-1.16,1.43-2.54,2.74-4.15,3.93-1.61,1.19-3.37,2.21-5.3,3.06-1.93.85-3.99,1.5-6.17,1.97-2.18.46-4.44.69-6.75.69-1.34,0-2.75-.1-4.24-.29-1.48-.19-2.95-.5-4.39-.92-1.44-.42-2.82-.96-4.13-1.63-1.31-.67-2.47-1.47-3.47-2.41-1.01-.94-1.8-2.03-2.39-3.25-.59-1.23-.88-2.63-.88-4.21,0-1.31.21-2.57.64-3.78.43-1.21,1-2.33,1.72-3.38.72-1.04,1.56-2.02,2.51-2.92.96-.9,1.97-1.71,3.03-2.43,1.07-.72,2.15-1.34,3.26-1.86,1.11-.52,2.18-.94,3.22-1.24l.06-.15c-.75-.33-1.49-.7-2.21-1.12-.72-.42-1.37-.92-1.95-1.49-.58-.57-1.05-1.22-1.4-1.95-.36-.73-.53-1.55-.53-2.47,0-1.04.24-1.98.72-2.81.48-.83,1.08-1.57,1.81-2.21.73-.64,1.53-1.2,2.41-1.67.87-.47,1.72-.88,2.53-1.23-1.57-.61-2.96-1.4-4.19-2.36-1.23-.96-2.27-2.06-3.11-3.29-.84-1.23-1.49-2.56-1.94-4.01-.45-1.44-.67-2.95-.67-4.53,0-2.68.52-5.16,1.55-7.45,1.04-2.28,2.43-4.25,4.19-5.91,1.76-1.66,3.8-2.96,6.11-3.9,2.32-.94,4.76-1.41,7.32-1.41.98,0,1.87.07,2.68.21.81.14,1.56.32,2.26.54.69.21,1.33.45,1.9.71.58.26,1.12.51,1.63.75.77.39,1.53.73,2.27,1.03.74.3,1.6.45,2.58.45.81,0,1.6-.13,2.35-.4.75-.27,1.41-.65,1.98-1.15.57-.5,1.02-1.12,1.36-1.84.34-.73.5-1.55.5-2.47,0-.14,0-.28-.02-.4-.01-.12-.03-.27-.05-.43l.4-.28c1.4.66,2.44,1.47,3.12,2.44.68.97,1.02,1.95,1.02,2.93,0,.78-.15,1.47-.46,2.07-.31.6-.74,1.12-1.3,1.55-.56.43-1.22.76-2,.98-.77.23-1.63.34-2.56.34-1.42,0-2.96-.29-4.6-.86l-.12.15ZM2408.5,945.08c-1.44.39-2.81.95-4.1,1.69-1.29.74-2.43,1.63-3.43,2.69-1,1.05-1.78,2.26-2.36,3.61-.58,1.35-.87,2.82-.87,4.42,0,1.96.43,3.66,1.3,5.08.86,1.42,1.98,2.6,3.35,3.55,1.37.94,2.9,1.64,4.59,2.09,1.69.45,3.35.68,5,.68,2.24,0,4.37-.34,6.4-1.03,2.03-.69,3.81-1.64,5.35-2.86,1.53-1.22,2.75-2.66,3.66-4.31s1.36-3.47,1.36-5.43c0-1.11-.22-2.05-.67-2.84-.45-.79-1.06-1.47-1.84-2.06-.78-.58-1.71-1.08-2.79-1.49-1.08-.41-2.26-.79-3.54-1.14-1.73-.47-3.55-.9-5.47-1.29-1.92-.39-3.9-.84-5.93-1.35ZM2414.78,926.51c1.1,0,2.09-.19,2.97-.57.88-.38,1.67-.89,2.36-1.52.69-.63,1.28-1.38,1.77-2.23.49-.85.89-1.74,1.2-2.67.31-.93.55-1.88.7-2.86.15-.97.23-1.91.23-2.81,0-1.13-.1-2.27-.29-3.42-.19-1.16-.48-2.28-.87-3.36-.39-1.08-.88-2.1-1.48-3.04-.6-.94-1.3-1.77-2.09-2.47-.79-.71-1.7-1.26-2.71-1.67-1.02-.41-2.14-.61-3.38-.61-1.16,0-2.2.18-3.12.55-.92.37-1.74.87-2.45,1.5-.71.63-1.32,1.37-1.81,2.2-.5.83-.9,1.71-1.22,2.64-.32.93-.55,1.88-.7,2.84-.15.96-.23,1.88-.23,2.76,0,1.13.1,2.28.31,3.45.2,1.18.51,2.31.91,3.39.41,1.09.92,2.11,1.54,3.07.62.96,1.34,1.8,2.16,2.52.82.72,1.75,1.28,2.79,1.69,1.04.41,2.17.61,3.41.61Z"/>
      </g>
    </g>
  </g>
  <path class="st0" d="M1835.04,456.39c-14.32-9.83-33.37-15.5-50.9-15.16-13.7-.08-27.91,2.99-41.41,8.81,11.66-14.33,23.56-35.22,23.63-60.8.1-19.04-7.22-37.31-20.06-50.1-13.16-13.34-32.49-20.91-52.95-20.79-21.08.06-43.29,7.16-66,21.09-29.49,17.81-53.33,45.77-67.14,78.73-.68,1.61-1.34,3.22-1.97,4.84-.22.56-.42,1.11-.64,1.67-.41,1.07-.82,2.13-1.22,3.2-.25.68-.49,1.37-.73,2.05-.34.95-.68,1.9-1.01,2.85-.26.75-.5,1.5-.75,2.26-.3.89-.59,1.78-.88,2.68-.25.8-.5,1.59-.74,2.39-.26.85-.53,1.71-.78,2.56-.25.83-.48,1.67-.72,2.5-.24.82-.47,1.65-.7,2.47-.24.87-.47,1.74-.7,2.6-.21.79-.42,1.59-.62,2.38-.23.9-.45,1.81-.67,2.71-.19.76-.37,1.52-.55,2.29-.22.94-.43,1.87-.65,2.81-.16.73-.33,1.46-.49,2.19-.21.97-.42,1.95-.62,2.92-.14.69-.29,1.39-.43,2.08-.2,1.01-.4,2.02-.59,3.03-.12.66-.25,1.31-.37,1.97-.19,1.05-.38,2.1-.56,3.15-.11.61-.21,1.22-.31,1.84-.18,1.09-.36,2.19-.54,3.29-.09.56-.17,1.12-.26,1.68-.18,1.15-.35,2.3-.51,3.45-.07.5-.14.99-.21,1.49-.17,1.21-.33,2.42-.49,3.62-.05.42-.11.85-.16,1.27-.16,1.28-.32,2.56-.47,3.84,0,.07-.02.14-.03.2,0,0,0,0,0,0-.15,1.33-.31,2.67-.45,4,4.61-1.03,9.47-1.78,14.57-2.21l.64-.02c3.51-.26,7.27-.39,11.18-.39,2.79.03,5.54.16,8.23.39.15-1.28.31-2.55.48-3.82.11-.8.22-1.6.33-2.4.09-.66.18-1.32.28-1.98.12-.79.24-1.58.36-2.36.1-.66.2-1.32.31-1.98.13-.78.26-1.56.39-2.33.11-.66.23-1.33.35-1.99.14-.77.28-1.53.43-2.29.13-.67.25-1.34.39-2,.15-.75.31-1.5.46-2.25.14-.67.28-1.34.43-2,.16-.74.33-1.48.5-2.22.15-.67.31-1.34.47-2.01.17-.73.36-1.46.54-2.19.17-.67.34-1.33.51-2,.19-.72.38-1.44.58-2.16.18-.66.37-1.33.55-1.99.2-.71.41-1.42.62-2.13.2-.66.39-1.32.6-1.98.22-.7.44-1.4.66-2.1.21-.66.43-1.31.65-1.97.23-.69.47-1.37.7-2.06.23-.65.46-1.31.7-1.96.25-.68.5-1.35.75-2.03.24-.65.49-1.29.75-1.94.26-.67.53-1.33.8-1.99.26-.64.53-1.28.8-1.92.28-.65.56-1.31.84-1.96.28-.64.57-1.27.86-1.9.29-.64.59-1.28.89-1.92.3-.63.61-1.26.92-1.89.31-.63.62-1.26.94-1.88.32-.63.65-1.25.98-1.87.33-.62.65-1.23.99-1.84.34-.62.69-1.23,1.04-1.84.34-.6.69-1.21,1.04-1.81.36-.61.73-1.22,1.1-1.82.36-.59.72-1.18,1.09-1.76.38-.6.78-1.2,1.17-1.8.38-.58.76-1.15,1.15-1.73.4-.59.82-1.18,1.23-1.77.4-.56.79-1.13,1.2-1.69.43-.59.87-1.16,1.31-1.74.41-.55.83-1.1,1.25-1.64.45-.58.92-1.15,1.39-1.72.43-.53.86-1.06,1.3-1.59.48-.57.97-1.13,1.46-1.69.45-.52.9-1.03,1.36-1.54.51-.56,1.03-1.11,1.55-1.67.47-.5.93-1,1.4-1.49.54-.55,1.09-1.09,1.64-1.64.48-.48.96-.96,1.46-1.44.57-.55,1.16-1.08,1.74-1.62.5-.46.99-.92,1.5-1.38.61-.54,1.23-1.07,1.86-1.6.51-.44,1.01-.88,1.53-1.31.65-.54,1.33-1.07,2-1.61.51-.4,1.01-.82,1.52-1.22.72-.55,1.46-1.09,2.2-1.64.5-.37.98-.74,1.48-1.1.82-.59,1.67-1.16,2.52-1.74.44-.3.87-.61,1.31-.91,1.3-.87,2.63-1.72,3.99-2.55,18.15-11.12,34.84-15.75,49.21-15.75,19.53,0,34.79,8.54,43.63,20.91,15.33,21.44,14.73,58.68-22.82,89.8-1.66,1.24-3.29,2.53-4.83,3.83-.65.55-.74,1.51-.22,2.17.31.39.77.59,1.23.59.33,0,.66-.1.94-.31,1.5-1.12,3.03-2.34,4.83-3.83,30.27-22.57,61.6-19.51,80.83-9.11,15.61,8.44,24.78,22.39,23.92,36.4-1.11,18.03-17.74,34.24-46.83,45.62-27.52,10.77-57.32,11.7-86.13,12.6-12.66.4-24.61.77-36.38,1.93h0s-.07,0-.1.01c-21.76,2.15-46.2,6.95-66.23,25.16h0s0,0,0,0c-.58.53-1.16,1.07-1.74,1.62-.07.07-.14.13-.21.2-.51.5-1.03,1-1.53,1.52-.21.22-.43.44-.64.66-.38.4-.76.79-1.14,1.19-.61.66-1.22,1.34-1.83,2.03l-.9.71h0l-1.24.98c-.03-4.57-.09-9.2-.14-13.88-.23-19.67-.46-40.01.54-60.11-2.05-1.25-4.4-1.98-7.12-2.23-5.34-.48-9.39,1.39-12.74,5.89-3.63,5.25-5.89,11.93-6.7,19.86-.84,8.17.15,17.13,2.95,26.63,2.78,9.43,7.5,18.28,14.04,26.3l6.15,6.64c.23-.15.45-.31.68-.47,3.01-2.04,6.14-3.95,9.41-5.71l.37-.2c.44-.24.89-.47,1.34-.71.29-.15.58-.29.87-.44l.35-.18c.86-.43,1.72-.85,2.6-1.26l.85-.39c.97-.44,1.95-.87,2.93-1.29l.75-.32c1-.41,2-.81,3.01-1.19l.75-.29c1.31-.49,2.53-.92,3.71-1.31,1.77-.59,3.58-1.16,5.39-1.69.25-.07.49-.14.74-.2l.64-.17c1.35-.38,2.7-.77,4.06-1.11.25-.06.5-.12.74-.18l.63-.15c1.37-.34,2.74-.68,4.12-.98.2-.04.4-.08.6-.12l.54-.11c1.46-.31,2.92-.62,4.39-.9l.89-.16c1.55-.29,3.11-.57,4.67-.82l.62-.09c1.65-.26,3.31-.52,4.97-.74l.44-.06c1.73-.23,3.46-.45,5.19-.65l.14-.02c1.83-.21,3.67-.4,5.5-.58,1.44-.14,2.88-.26,4.33-.38h0c2.81-.23,5.63-.43,8.46-.6.2-.01.4-.03.59-.04,2.74-.17,5.47-.31,8.21-.43.27-.01.54-.02.82-.04,2.71-.12,5.41-.23,8.11-.33.26,0,.52-.02.78-.03,2.7-.1,5.38-.19,8.05-.28l5.73-.19c35.31-1.05,75.33-2.25,111.48-16.38,18.85-7.56,45.4-20.38,58.19-44.44,3.48-6.84,5.31-14.25,5.29-21.48-.62-17.43-9.97-33.21-26.32-44.43Z"/>
  <path class="st4" d="M1721.4,798.17c-2.62-1.57-4.84-2.75-6.67-3.53-5.49-2.62-10.73-6.14-15.7-10.59-6.81-6.01-14.78-15.43-23.94-28.25,16.22-17.27,27.73-40.55,34.53-69.85,1.83-8.11,2.16-15.24.98-21.39-1.18-6.14-3.47-11.24-6.87-15.3-3.4-4.05-7.33-7-11.77-8.83-4.45-1.83-9.22-2.55-14.32-2.16-5.1.39-9.75,2.03-13.93,4.91-4.97,3.4-8.63,7.2-10.99,11.38-2.35,4.19-3.47,8.9-3.34,14.13.13,5.24.65,10.01,1.57,14.32.91,4.32,2.29,9.88,4.12,16.68,3.92,11.77,5.23,22.5,3.92,32.18-6.54-9.68-19.76-27.99-39.63-54.94-19.88-26.94-31.53-42.51-34.92-46.7,4.71-1.57,9.03-3,12.95-4.32,15.7-6.28,27.21-14.32,34.53-24.13,2.48-3.32,4.52-6.9,6.16-10.74-.55.06-1.11.11-1.66.17l-.17.02c-1.67.19-3.36.41-5.06.64l-.48.06c-1.56.21-3.18.46-4.8.72l-.67.1c-1.46.24-2.98.51-4.49.79l-.94.17c-1.36.26-2.78.56-4.2.87l-1.16.24c-1.28.28-2.61.61-3.94.94l-.67.16c-.28.06-.47.11-.66.16-1.3.33-2.59.7-3.88,1.06l-.74.2c-.3.08-.47.13-.64.18-1.75.51-3.5,1.06-5.21,1.63-1.13.38-2.28.78-3.54,1.25l-.69.27c-.98.38-1.94.75-2.9,1.15l-.72.3c-.93.4-1.87.81-2.8,1.23l-.83.38c-.82.38-1.64.78-2.46,1.19l-.35.17c-.27.14-.55.27-.82.41-.39.2-.78.41-1.16.61l-.47.25c-2.5,1.35-5.04,2.87-7.56,4.52-1.65,1.62-3.4,3.11-5.27,4.43l-.48-.52h0s-.49-.52-.49-.52l-8.85-9.55c-7.06-8.63-12.1-18.05-15.11-28.25-3.01-10.2-4.06-19.75-3.14-28.65.91-8.89,3.46-16.35,7.65-22.37,4.45-6.01,10.26-8.69,17.46-8.04,7.19.66,12.75,4.12,16.68,10.4,6.28,9.95,8.89,24.86,7.85,44.73-.09,1.42-.23,2.81-.41,4.21,17.06-10.92,35.57-14.74,52.34-16.68-1.36-15.39-8.59-28.38-21.72-38.94-14.65-11.77-32.7-17.79-54.15-18.05-3.92,0-7.59.13-10.99.39h-.39c-12.3,1.05-22.96,3.86-31.98,8.44-9.03,4.58-15.76,9.68-20.21,15.3-4.45,5.63-7.92,11.97-10.4,19.03-2.49,7.06-3.92,13.15-4.32,18.25-.39,5.1-.33,9.75.2,13.93.52,6.28,2.55,12.89,6.08,19.82,3.53,6.93,6.67,12.16,9.42,15.7,2.75,3.53,7.78,9.88,15.11,19.03-14.91,7.59-27.14,17.73-36.69,30.41-9.55,12.69-14.32,26.23-14.32,40.61,0,23.81,9.74,43.56,29.23,59.25,19.49,15.7,46.5,23.54,81.03,23.54h15.3c15.43,0,28.25-1.43,38.46-4.32,3.4,4.97,5.23,7.46,5.49,7.46,3.14,5.75,3.79,10.99,1.96,15.7l-.39,1.18c-1.31,2.88-.66,4.71,1.96,5.49,3.4.78,9.42,1.04,18.05.78h51.41c14.65.52,22.5,0,23.54-1.57,1.57-3.4-2.75-7.85-12.95-13.34ZM1599.36,773.06c-6.81,0-12.3-.13-16.48-.39-4.19-.26-9.61-1.37-16.28-3.34-6.67-1.96-12.23-4.91-16.68-8.83-13.34-12.03-20.01-30.87-20.01-56.51.52-14.65,3.53-30.47,9.03-47.48,20.93,26.68,48.92,64.49,83.98,113.41-7.06,2.1-14.91,3.14-23.54,3.14Z"/>
</svg>